<?xml version="1.0" encoding="UTF-8" standalone="no"?>
<svg
   xmlns:dc="http://purl.org/dc/elements/1.1/"
   xmlns:cc="http://creativecommons.org/ns#"
   xmlns:rdf="http://www.w3.org/1999/02/22-rdf-syntax-ns#"
   xmlns:svg="http://www.w3.org/2000/svg"
   xmlns="http://www.w3.org/2000/svg"
   version="1.1"
   id="svg2"
   xml:space="preserve"
   width="1470.9067"
   height="475.41333"
   viewBox="0 0 1470.9067 475.41333"><metadata
     id="metadata8"><rdf:RDF><cc:Work
         rdf:about=""><dc:format>image/svg+xml</dc:format><dc:type
           rdf:resource="http://purl.org/dc/dcmitype/StillImage" /><dc:title></dc:title></cc:Work></rdf:RDF></metadata><defs
     id="defs6"><clipPath
       clipPathUnits="userSpaceOnUse"
       id="clipPath20"><path
         d="M 224.219,2707.6 H 0 v 308.36 h 224.219 c -1.793,208.43 39.418,353.11 123.707,433.96 81.508,78.88 219.32,117.46 413.465,115.67 74.418,-1.86 148.922,-4.67 223.339,-8.26 v -338.68 c -43.621,5.52 -85.531,8.23 -125.531,8.23 -53.492,0 -95.801,-7.39 -126.965,-22.15 -30.32,-16.47 -45.449,-57.76 -45.449,-123.96 v -64.81 H 966.063 V 2707.6 H 686.785 V 1551.74 H 224.219 Z"
         id="path18" /></clipPath><linearGradient
       x1="0"
       y1="0"
       x2="1"
       y2="0"
       gradientUnits="userSpaceOnUse"
       gradientTransform="matrix(1e-7,1786.43,1786.43,-1e-7,492.365,1327.85)"
       spreadMethod="pad"
       id="linearGradient26"><stop
         style="stop-opacity:1;stop-color:#1b385a"
         offset="0"
         id="stop22" /><stop
         style="stop-opacity:1;stop-color:#578569"
         offset="1"
         id="stop24" /></linearGradient><clipPath
       clipPathUnits="userSpaceOnUse"
       id="clipPath36"><path
         d="m 1089.84,3015.96 h 450.4 v -257.58 h 5.34 c 76.32,188.19 218.08,283.26 425.16,285.16 36.39,0 72.78,-3.65 109.17,-11.07 v -435.06 c -57.87,18.3 -117.13,27.51 -177.56,27.51 -114.9,-1.83 -201.28,-35.88 -259.18,-102.04 -60.54,-67.23 -90.79,-149.03 -90.79,-245.52 v -725.62 h -462.54 z"
         id="path34" /></clipPath><linearGradient
       x1="0"
       y1="0"
       x2="1"
       y2="0"
       gradientUnits="userSpaceOnUse"
       gradientTransform="matrix(1e-7,1786.45,1786.45,-1e-7,1584.88,1327.85)"
       spreadMethod="pad"
       id="linearGradient42"><stop
         style="stop-opacity:1;stop-color:#1b385a"
         offset="0"
         id="stop38" /><stop
         style="stop-opacity:1;stop-color:#578569"
         offset="1"
         id="stop40" /></linearGradient><clipPath
       clipPathUnits="userSpaceOnUse"
       id="clipPath52"><path
         d="m 2581.83,2281.79 c 0,-45.24 5.48,-91.27 16.14,-138.22 7.17,-48.96 21.78,-93.13 44.14,-132.8 21.41,-39.57 51.29,-71.87 89.73,-96.75 36.61,-25.83 80.82,-38.76 132.7,-38.76 54.36,0 100.76,12.93 139.12,38.76 34.78,24.88 63.42,57.18 85.78,96.75 21.34,39.6 37.41,83.84 48.16,132.8 8.03,46.95 12.05,92.98 12.05,138.22 0,100.47 -20.09,193.12 -60.21,277.88 -42.89,86.66 -117.86,130.87 -224.9,132.77 -106.32,-1.9 -180.41,-46.11 -222.43,-132.77 -41.94,-84.76 -62.11,-177.41 -60.28,-277.88 z m -462.47,0 c 1.76,225.89 71.47,411.3 209.28,556.5 135.03,145.04 313.62,218.51 535.9,220.41 225.63,-1.9 405.53,-75.37 539.77,-220.41 136.86,-145.2 206.2,-330.61 207.88,-556.5 -1.68,-223.16 -71.02,-406.35 -207.88,-549.56 -134.24,-145.2 -314.14,-219.44 -539.77,-223.16 -222.28,3.72 -400.87,77.96 -535.9,223.16 -137.81,143.21 -207.52,326.4 -209.28,549.56 z"
         id="path50" /></clipPath><linearGradient
       x1="0"
       y1="0"
       x2="1"
       y2="0"
       gradientUnits="userSpaceOnUse"
       gradientTransform="matrix(1e-7,1786.41,1786.41,-1e-7,2865.78,1327.89)"
       spreadMethod="pad"
       id="linearGradient58"><stop
         style="stop-opacity:1;stop-color:#1b385a"
         offset="0"
         id="stop54" /><stop
         style="stop-opacity:1;stop-color:#578569"
         offset="1"
         id="stop56" /></linearGradient><clipPath
       clipPathUnits="userSpaceOnUse"
       id="clipPath68"><path
         d="m 3720.99,3015.96 h 451.06 v -201.09 h 5.26 c 45.38,77.16 108.95,137.7 190.79,181.83 81.77,41.36 166.82,62 254.79,62 120.13,0 214.39,-18.89 282.93,-56.55 67.67,-37.63 117.87,-86.7 150.75,-147.32 34.85,-57.9 56.48,-118.95 65.4,-183.22 7.01,-66.09 10.67,-126.26 10.67,-180.41 V 1551.74 H 4670.1 v 708.96 c 0,50.6 0.88,100.62 2.78,150.42 -1.9,48.77 -9.06,91.96 -21.63,129.62 -12.5,37.71 -34.49,67.56 -65.84,89.66 -34.93,22.98 -84.69,34.49 -149.21,34.49 -87.83,-1.9 -151.91,-33.13 -192.17,-93.82 -40.34,-61.68 -60.43,-134.74 -60.43,-219.36 v -799.97 h -462.61 z"
         id="path66" /></clipPath><linearGradient
       x1="0"
       y1="0"
       x2="1"
       y2="0"
       gradientUnits="userSpaceOnUse"
       gradientTransform="matrix(1e-7,1786.46,1786.46,-1e-7,4426.81,1327.84)"
       spreadMethod="pad"
       id="linearGradient74"><stop
         style="stop-opacity:1;stop-color:#1b385a"
         offset="0"
         id="stop70" /><stop
         style="stop-opacity:1;stop-color:#578569"
         offset="1"
         id="stop72" /></linearGradient><clipPath
       clipPathUnits="userSpaceOnUse"
       id="clipPath84"><path
         d="m 6228.33,2707.6 h -287.1 v -668.12 c 0,-54.32 15.05,-91.04 45.16,-110.44 31.2,-20.21 71.82,-30.29 121.72,-30.29 38.23,0 78.27,1.83 120.22,5.52 v -352.53 c -83.46,-7.31 -168.21,-11.84 -254.51,-13.74 -192.46,0 -323.41,36.76 -392.82,110.34 -71.03,77.24 -105.3,212.81 -102.52,406.89 v 652.37 h -234.93 v 308.36 h 234.93 v 442.22 h 462.75 v -442.22 h 287.1 z"
         id="path82" /></clipPath><linearGradient
       x1="0"
       y1="0"
       x2="1"
       y2="0"
       gradientUnits="userSpaceOnUse"
       gradientTransform="matrix(1e-7,1786.43,1786.43,-1e-7,5735.94,1327.88)"
       spreadMethod="pad"
       id="linearGradient90"><stop
         style="stop-opacity:1;stop-color:#1b385a"
         offset="0"
         id="stop86" /><stop
         style="stop-opacity:1;stop-color:#578569"
         offset="1"
         id="stop88" /></linearGradient><clipPath
       clipPathUnits="userSpaceOnUse"
       id="clipPath100"><path
         d="m 6352.76,3015.96 h 462.46 V 1551.74 h -462.46 z m 462.46,183.4 h -462.46 v 366.23 h 462.46 z"
         id="path98" /></clipPath><linearGradient
       x1="0"
       y1="0"
       x2="1"
       y2="0"
       gradientUnits="userSpaceOnUse"
       gradientTransform="matrix(1e-7,1786.43,1786.43,-1e-7,6583.99,1327.85)"
       spreadMethod="pad"
       id="linearGradient106"><stop
         style="stop-opacity:1;stop-color:#1b385a"
         offset="0"
         id="stop102" /><stop
         style="stop-opacity:1;stop-color:#578569"
         offset="1"
         id="stop104" /></linearGradient><clipPath
       clipPathUnits="userSpaceOnUse"
       id="clipPath116"><path
         d="m 7975.65,2434.72 c -3.65,84.51 -30.47,155.31 -80.44,212.16 -50.94,56.12 -116.56,85.01 -196.94,86.92 -82.2,0 -149.2,-26.27 -201.01,-78.62 -52.61,-55.06 -86.29,-128.61 -100.55,-220.46 z m -578.94,-267.25 c 5.41,-99.6 35.22,-179.98 89.8,-240.81 53.57,-61.85 129.56,-92.72 227.77,-92.72 58.97,0 112.02,14.32 159.36,42.92 47.42,25.87 83.09,65.51 107.27,119 h 431.92 c -45.23,-168.28 -132.33,-291.85 -261.23,-371.05 -133.27,-77.16 -280.88,-115.74 -442.72,-115.74 -232.95,1.9 -419.65,70.59 -560.09,206.6 -141.32,134.96 -212.78,325.53 -214.54,571.63 1.76,229.52 77.24,415.11 226.6,556.54 144.96,141.36 324.06,212.96 537.42,214.86 254.94,-4.68 445.29,-91.3 570.47,-259.94 123.93,-166.94 180.41,-377.34 169.37,-631.29 z"
         id="path114" /></clipPath><linearGradient
       x1="0"
       y1="0"
       x2="1"
       y2="0"
       gradientUnits="userSpaceOnUse"
       gradientTransform="matrix(1e-7,1786.41,1786.41,-1e-7,7686.86,1327.89)"
       spreadMethod="pad"
       id="linearGradient122"><stop
         style="stop-opacity:1;stop-color:#1b385a"
         offset="0"
         id="stop118" /><stop
         style="stop-opacity:1;stop-color:#578569"
         offset="1"
         id="stop120" /></linearGradient><clipPath
       clipPathUnits="userSpaceOnUse"
       id="clipPath132"><path
         d="m 8555.39,3015.96 h 450.4 v -257.58 h 5.2 c 76.34,188.19 218.1,283.26 425.19,285.16 36.39,0 72.7,-3.65 109.32,-11.07 v -435.06 c -57.87,18.3 -117.21,27.51 -177.8,27.51 -114.7,-1.83 -201.08,-35.88 -259.02,-102.04 -60.51,-67.23 -90.83,-149.03 -90.83,-245.52 v -725.62 h -462.46 z"
         id="path130" /></clipPath><linearGradient
       x1="0"
       y1="0"
       x2="1"
       y2="0"
       gradientUnits="userSpaceOnUse"
       gradientTransform="matrix(1e-7,1786.45,1786.45,-1e-7,9050.44,1327.85)"
       spreadMethod="pad"
       id="linearGradient138"><stop
         style="stop-opacity:1;stop-color:#1b385a"
         offset="0"
         id="stop134" /><stop
         style="stop-opacity:1;stop-color:#578569"
         offset="1"
         id="stop136" /></linearGradient><clipPath
       clipPathUnits="userSpaceOnUse"
       id="clipPath148"><path
         d="m 10072,2032.28 c 0,-73.83 26.9,-128.85 80.9,-164.92 51.2,-33.21 112.3,-49.9 183.3,-49.9 53,0 104.6,12.06 154.9,35.95 50.2,22.95 76.3,62.51 78.2,118.66 -1.9,55.24 -29.8,92.92 -84.3,113.3 -53.2,21.12 -103.2,35.33 -150,42.74 -75.4,18.46 -151.7,37.31 -228.8,56.56 -79,14.87 -152.98,37.27 -221.82,67.74 -66.26,30.32 -119.82,72.78 -161.25,126.99 -44.94,54.19 -67.59,130.69 -67.59,229.23 0,90.17 22.43,164.77 66.85,223.66 40.85,56.12 94.12,101.25 159.45,135.37 66.28,33.94 137.56,57.43 213.96,70.4 76.2,13.74 149.7,20.64 220.5,20.64 81.8,0 161.8,-6.9 239.9,-20.64 76.1,-12.86 146.1,-37.26 209.8,-73.07 62.6,-33.91 113.5,-81.69 152.6,-143.15 39.1,-62.4 60.7,-141.42 65.4,-236.81 h -444.5 c 0,60.57 -20.7,103.61 -62.1,128.74 -41.5,24.34 -92.5,36.58 -153.3,36.58 -43.2,0 -86.4,-4.68 -129.7,-13.82 -48.8,-14.83 -74.1,-47.05 -76,-96.74 0,-31.27 19.3,-58.38 57.8,-81.44 35,-23.05 80.1,-40.99 135.6,-53.85 119.4,-28.53 239.6,-53.89 361.1,-75.92 74.2,-15.67 134.2,-37.26 179.4,-64.92 45.2,-32.19 81.5,-68.1 109,-107.67 48.8,-81.03 72.3,-155.57 70.4,-223.71 -5.4,-192.31 -79.3,-328.11 -221.5,-407.33 -141.5,-77.3 -298.8,-115.88 -471.9,-115.88 -175.9,-1.9 -333.6,35.66 -473.19,112.52 -140.45,75.12 -218.49,212.02 -233.99,410.69 z"
         id="path146" /></clipPath><linearGradient
       x1="0"
       y1="0"
       x2="1"
       y2="0"
       gradientUnits="userSpaceOnUse"
       gradientTransform="matrix(1e-7,1786.43,1786.43,-1e-7,10331.5,1327.88)"
       spreadMethod="pad"
       id="linearGradient154"><stop
         style="stop-opacity:1;stop-color:#1b385a"
         offset="0"
         id="stop150" /><stop
         style="stop-opacity:1;stop-color:#578569"
         offset="1"
         id="stop152" /></linearGradient><clipPath
       clipPathUnits="userSpaceOnUse"
       id="clipPath164"><path
         d="m 1361.7,668.25 c -10.49,-5.34 -18.7,-15.711 -29.34,-19.66 -19.58,-7.149 -40.07,-13.949 -60.72,-16.219 -36.53,-4.383 -73.51,-5.043 -110.3,-7.461 -10.71,-0.719 -20.06,-1.68 -19.88,14.031 0.15,28.348 -1.6,56.707 -0.9,85.059 0.4,19.289 2.95,38.578 5.58,57.73 2.78,19.872 6.47,22.348 27.18,21.192 34.24,-0.594 68.4,-1.32 102.63,-1.613 37.01,-0.438 73.62,-2.039 109.02,-14.399 22.98,-7.961 30.95,-19.801 27.11,-44.058 -5.15,-32.731 -19.58,-58.903 -50.38,-74.602 z m 143.88,-249.102 c -35.26,42.684 -69.42,86.372 -104.02,129.633 -2.01,2.559 -2.85,6.059 -4.09,8.481 5,3.347 8.84,6.058 12.78,8.468 11.69,7.52 22.55,17.379 35.34,21.551 11.94,4.028 19.07,12.789 26.81,20.098 6.98,6.723 9.06,18.121 14.4,26.82 10.3,16.731 21.7,32.801 31.74,49.61 3.33,5.773 4.79,13.152 5.56,19.8 1.43,13.161 1.49,26.379 2.78,39.532 0.47,4.898 4.82,10.449 3.54,14.55 -5.52,18.188 -11.66,36.379 -19,54 -6.5,16.071 -14.25,32.071 -29.41,42.231 -17.21,11.539 -32.26,26.449 -54.26,30.457 -19.07,3.59 -37.26,10.609 -56.11,15.422 -9.32,2.488 -19.22,4.32 -29.01,5.187 -8.19,0.883 -16.52,-0.797 -24.66,0.293 -17.32,2.27 -34.42,7.528 -51.77,8.117 -19.4,0.731 -39.1,-3.359 -58.64,-3.289 -32.59,0.082 -65.26,1.68 -97.84,3 -16.48,0.582 -33.07,1.903 -49.62,2.493 -2.84,0 -5.8,-1.762 -8.58,-2.93 -7.53,-3.293 -15.1,-6.363 -22.33,-10.231 -3.51,-1.902 -6.87,-4.679 -9.09,-7.742 -10.16,-14.621 -4.17,-30.34 -3.62,-46.039 1.39,-40.488 0.73,-81.031 0.98,-121.519 0.04,-7.371 1.17,-14.692 1.36,-21.993 0.73,-24.117 1.38,-48.078 1.97,-72.187 0.84,-37.852 1.79,-75.699 2.56,-113.481 0.4,-18.789 -0.26,-37.628 0.77,-56.351 1.56,-27.609 5.19,-55.078 6.28,-82.777 0.77,-23.024 0.29,-45.813 14.47,-65.762 4.31,-6 8.18,-12.57 10.81,-19.512 6.43,-16.519 33.62,-27.547 49.73,-20.457 11.72,5.18 15.67,16.949 23.78,24.258 16.19,14.762 18.12,31.851 17.06,51.152 -2.04,40.77 -3.83,81.617 -5.41,122.539 -0.54,15.629 -0.03,31.352 -0.03,47.2 8.98,0.511 15.53,0.66 21.99,1.39 15.09,1.75 30.18,4.449 45.45,5.551 20.35,1.461 40.81,1.758 61.23,2.199 3.69,0 8.41,-0.879 10.93,-3.301 16.62,-15.847 34.01,-31.257 48.63,-48.879 18.34,-21.921 25.97,-51.289 47.17,-71.601 1.2,-1.109 0.95,-3.438 1.86,-4.91 8.81,-14.981 16.73,-30.539 26.89,-44.489 8.88,-12.281 20.46,-22.949 31.86,-35.148 -3.91,-2.051 -6.58,-3.434 -9.17,-4.75 2.52,0.879 5.15,1.609 7.78,2.477 8.66,-11.688 15.82,-25.137 26.63,-34.34 8.48,-7.379 22.73,-15.047 32.01,-12.86 16.62,4.09 31.46,15.422 46.76,23.969 2.05,1.172 3.25,4.012 4.72,6.211 4.93,7.531 9.79,14.832 14.5,22.359 2.16,3.582 5.44,7.383 5.66,11.18 0.81,15.203 -4.97,27.774 -16.04,38.512 -15.27,14.832 -30.69,29.441 -44.09,45.808 z"
         id="path162" /></clipPath><linearGradient
       x1="0"
       y1="0"
       x2="1"
       y2="0"
       gradientUnits="userSpaceOnUse"
       gradientTransform="matrix(1e-7,1181.35,1181.35,-1e-7,1290.01,-45.8101)"
       spreadMethod="pad"
       id="linearGradient170"><stop
         style="stop-opacity:1;stop-color:#1b385a"
         offset="0"
         id="stop166" /><stop
         style="stop-opacity:1;stop-color:#578569"
         offset="1"
         id="stop168" /></linearGradient><clipPath
       clipPathUnits="userSpaceOnUse"
       id="clipPath180"><path
         d="m 553.945,689.289 c 10.782,34.859 27.801,69.57 56.59,94.481 13.778,11.769 29.336,22.218 48.488,25.718 11.438,2.203 22.832,6.442 33.387,11.403 9.211,4.238 15.895,3.507 22.141,-4.532 5.922,-7.519 11.074,-16.218 18.597,-21.769 7.379,-5.559 17.028,-8.77 26.157,-11.551 8.883,-2.48 17.066,-4.668 19.004,-15.488 0.293,-2.039 1.679,-4.391 3.402,-5.551 27.98,-20.539 29.441,-53.789 39.156,-82.789 3.254,-9.359 2.379,-20.02 3.438,-30.031 -0.657,-0.149 -1.352,-0.149 -1.938,-0.149 0,-29.371 1.133,-58.75 -0.472,-87.98 -0.625,-11.91 -7.418,-23.379 -10.817,-35.219 -5.918,-20.613 -11.402,-41.363 -17.027,-62.113 -0.106,-0.289 -0.211,-0.719 -0.504,-1.16 -20.793,-28.868 -41.031,-58.02 -76.067,-72.637 -33.984,-14.172 -66.32,-4.973 -99.015,3.207 -3.504,0.812 -6.902,2.93 -10.156,2.641 -11.473,-0.961 -19.43,5.261 -23.496,14.171 -11.141,24.7 -24.512,49.25 -30.282,75.411 -7.527,34.128 -11.621,69.636 -11.875,104.718 -0.293,33.239 1.532,67.871 11.289,99.219 z M 466.34,417.621 c 6.824,-20.762 21.625,-38.512 23.418,-61.312 0.031,-1.528 1.57,-3 2.625,-4.309 5.808,-7.23 11.508,-14.539 17.539,-21.48 3.945,-4.461 7.746,-10.45 12.859,-12.129 27.512,-9.282 55.274,-17.762 83.157,-25.942 32.878,-9.648 66.089,-14.39 87.132,-11.539 42.164,1.969 69.86,7.371 94.227,24.692 12.125,8.757 25.207,16.359 37.336,25.289 10.375,7.66 16.113,19.14 23.312,29.66 13.149,19.148 31.672,34.34 46.907,52.168 5.996,6.871 10.671,15.64 13.046,24.332 6.028,21.121 9.973,42.738 15.344,64.078 5.738,22.812 13.887,45.172 18.012,68.109 3.289,18.922 2.519,38.5 2.992,57.871 0.442,14.032 2.633,28.789 -0.613,41.942 -7.863,31.711 -16.371,63.347 -28.574,93.527 -16.844,42.231 -38.766,81.844 -85.02,100.184 -3.867,1.457 -8.254,9.789 -7.41,13.957 2.992,13.953 -4.281,20.461 -15.055,25.281 -6.617,2.988 -14.578,4.02 -20.719,7.75 -33.5,20.078 -68.722,13.582 -102.48,4.09 -21.152,-6 -42.418,-12.719 -63.422,-19.442 -30.543,-9.57 -59.957,-23.089 -82.242,-47.707 -8.039,-8.851 -15.566,-19.07 -25.324,-25.429 -19.797,-12.942 -31.344,-31.203 -40.371,-51.953 -8.911,-20.457 -18.34,-40.629 -26.411,-61.387 -3.949,-9.863 -5.957,-20.613 -7.71,-31.192 -1.571,-9 0.074,-18.57 -2.157,-27.398 -6.718,-27.41 -11.648,-54.082 -2.3,-82.434 5.992,-17.828 9.867,-37.546 8.917,-56.046 -1.863,-33.981 13.04,-62.911 22.985,-93.231 z"
         id="path178" /></clipPath><linearGradient
       x1="0"
       y1="0"
       x2="1"
       y2="0"
       gradientUnits="userSpaceOnUse"
       gradientTransform="matrix(1e-7,1181.26,1181.26,-1e-7,687.326,-45.8)"
       spreadMethod="pad"
       id="linearGradient186"><stop
         style="stop-opacity:1;stop-color:#1b385a"
         offset="0"
         id="stop182" /><stop
         style="stop-opacity:1;stop-color:#578569"
         offset="1"
         id="stop184" /></linearGradient><clipPath
       clipPathUnits="userSpaceOnUse"
       id="clipPath196"><path
         d="m 65.6523,260.148 c 9.7188,-2.988 17.1016,-4.668 25.2852,1.461 7.3438,5.332 18.6715,9.063 21.5195,16.153 6.535,15.57 15.305,30.687 15.305,48.668 0,46.25 1.32,92.511 1.386,138.761 0.079,30.321 -0.906,60.641 -2.039,91.039 -0.257,7.68 1.746,12.282 9.571,12.418 14.394,0.293 28.715,0.954 42.965,-0.437 32.332,-2.992 64.847,-2.699 96.742,-12.133 11.511,-3.5 27.769,-0.137 38.875,5.781 16.035,8.621 27.953,23.161 34.636,41.582 5.372,15.047 2.52,33.457 -10.523,42.957 -7.012,4.973 -17.461,6.582 -22.617,13 -7.344,8.774 -14.836,9.282 -24.406,7.313 -5.477,-1.102 -10.922,-2.34 -16.368,-2.481 -23.379,-0.878 -46.914,-1.32 -70.254,-1.761 -21.082,-0.36 -42.054,-0.867 -63.058,-0.43 -3.914,0.141 -10.27,3.949 -11,7.012 -1.75,9.058 -1.496,18.488 -1.606,27.769 -0.257,18.711 -0.695,37.551 0,56.27 0.696,21.762 2.231,43.691 4.676,65.32 0.473,3.649 7.121,9.211 10.961,9.352 41.465,1.457 82.86,0.726 124.258,3.429 29.41,1.911 58.562,-1.39 87.793,-0.8 13.187,0.289 27.437,-0.153 37.48,11.25 5.704,6.578 10.414,14.031 16.625,20.097 10.961,10.742 10.817,24.481 10.485,37.922 -0.071,6.578 -23.926,20.309 -31.961,21.918 -5.485,1.031 -10.598,4.684 -15.641,7.242 -0.074,0.879 -0.113,1.75 -0.148,2.7 -12.164,-0.809 -24.438,-2.188 -36.684,-2.188 -23.047,0 -46.176,2.77 -69.121,0.867 -49.762,-3.937 -99.414,-10.949 -149.609,-7.738 -3.071,0.148 -6.145,-0.883 -9.172,-1.32 C 94.2227,918.73 78.5508,914.57 62.7344,914.422 40.5156,913.98 23.3477,902.949 18.4141,881.539 17.1367,876.129 18.5938,868.969 15.5273,865.031 -0.0742188,844.488 4.67578,819.648 4.08984,797.512 3.14453,763.461 11.3281,729.34 13.1875,695.07 13.9219,681.328 7.78125,667.148 5.11719,653.191 c -0.80469,-4.089 -1.02735,-8.402 -0.625,-12.57 0.73047,-5.98 2.89062,-11.832 3.14453,-17.75 1.24219,-31.281 1.82812,-62.402 2.99608,-93.68 0.1836,-7.441 2.082,-14.902 2.2266,-22.351 0.7344,-26.75 1.4961,-53.488 1.3867,-80.238 0,-25.872 0.293,-51.872 -2.043,-77.743 -3.21482,-37.187 11.7266,-76.429 53.4492,-88.711 z"
         id="path194" /></clipPath><linearGradient
       x1="0"
       y1="0"
       x2="1"
       y2="0"
       gradientUnits="userSpaceOnUse"
       gradientTransform="matrix(1e-7,1181.35,1181.35,-1e-7,213.145,-45.8)"
       spreadMethod="pad"
       id="linearGradient202"><stop
         style="stop-opacity:1;stop-color:#1b385a"
         offset="0"
         id="stop198" /><stop
         style="stop-opacity:1;stop-color:#578569"
         offset="1"
         id="stop200" /></linearGradient><clipPath
       clipPathUnits="userSpaceOnUse"
       id="clipPath212"><path
         d="m 7155.87,67.3906 c 12.71,10.3711 25.72,20.6094 38.22,31.418 3.87,3.3714 6.58,8.4724 8.56,13.3004 6.64,15.782 -0.75,29.52 -4.54,45.012 -11.25,46.18 -13.67,93.68 -12.87,141.25 0.52,28.418 0.81,56.91 -0.13,85.418 -1.61,42.371 -4.97,84.832 -6.65,127.281 -1.69,40.852 -1.69,81.692 -2.79,122.539 -0.94,32.512 -3.57,64.961 -3.86,97.411 -0.15,26.519 0.72,53.039 3.21,79.5 1.02,13.152 5.56,13.429 16,4.742 23.31,-19.364 41.29,-43.543 64.97,-62.981 37.55,-30.621 69.26,-68.031 103.09,-102.89 8.48,-8.77 15.71,-18.782 23.98,-27.84 10.29,-11.25 21.03,-22.199 31.85,-32.879 10.59,-10.371 21.55,-20.531 32.74,-30.242 9.49,-8.051 16.36,-17.621 20.75,-29.379 1.32,-3.512 6.06,-5.992 9.79,-8.262 6.58,-4.019 13.81,-7.16 20.16,-11.328 6.8,-4.371 12.28,-12.629 19.3,-14.02 29.16,-5.851 56.92,-19.589 88.41,0.649 22.66,14.539 40.12,33.101 57.95,51.371 16.44,16.508 28.05,37.641 42.82,55.898 38.35,47.422 77.23,94.563 115.88,141.692 18.05,21.988 36.39,43.98 54.88,65.828 10.23,12.211 20.97,24.043 31.27,36.019 1.46,-0.289 2.78,-0.726 4.1,-1.019 -1.03,-21.34 -1.76,-42.668 -3.07,-64.008 -0.74,-11.473 1.1,-24.621 -3.87,-34.051 -8.48,-16.07 -4.24,-31.558 -4.02,-47.351 0.51,-37.27 1.75,-74.528 2.7,-111.867 0.29,-7.461 0.29,-14.981 1.54,-22.282 1.89,-11.261 5.84,-22.148 7.15,-33.468 2.2,-18.711 2.56,-37.704 4.24,-56.563 3.51,-39.309 7.82,-78.48 10.89,-117.777 3.15,-41.364 4.9,-82.723 7.96,-124.223 2.12,-28.211 4.76,-56.129 -1.31,-84.398 -1.82,-7.821 1.02,-19.801 6.36,-25.211 18.56,-18.559 39.16,-35.0003 55.61,-49.3987 18.85,-1.3204 34.63,-2.3399 48.51,-3.293 9.57,5.1914 18.56,10.8906 27.91,15.2109 20.46,9.3399 35.59,39.0898 30.84,61.3008 -2.34,11.391 -6.07,23.238 -5.11,34.629 1.6,19.73 2.34,38.59 -4.83,57.293 -3.28,8.328 -5.04,17.387 -6.06,26.308 -2.04,19.801 -3.36,39.598 -4.53,59.469 -2.41,40.492 -4.47,80.973 -7.02,121.449 -1.24,21.481 1.54,44.723 -6.06,63.793 -9.94,25.207 2.34,50.489 -7.82,75.34 -5.26,12.86 0.22,29.809 -0.15,45.008 -0.8,32 -4.96,64 0.44,95.871 1.53,8.91 3,17.899 3.15,26.879 0.8,39.902 1.53,79.731 1.97,119.621 0.14,14.539 -1.03,29.012 -0.88,43.481 0.15,6.14 3.51,12.347 3,18.339 -1.68,18.629 -3.44,37.489 -6.95,55.891 -3.72,18.999 7.38,37.559 -5.69,58.019 -15.79,24.34 -46.55,44.36 -76.07,38.59 -12.86,-2.49 -25.57,-4.83 -38.44,-7.24 -34.92,-6.36 -65.83,-20.1 -88.13,-48.74 -17.23,-22.35 -33.24,-45.602 -50.41,-68.168 -10.52,-13.891 -22.65,-26.531 -33.02,-40.711 -20.1,-27.609 -38.59,-56.762 -59.49,-83.871 -27.33,-35.23 -56.41,-68.98 -84.83,-103.32 -17.75,-21.571 -36.76,-42.391 -53.71,-64.598 -15.41,-20.32 -15.85,-21.121 -34.92,-4.75 -0.8,0.727 -1.17,1.758 -2.12,2.188 -22.22,14.101 -29.31,41.871 -54.15,55.312 -20.16,10.969 -35.51,31.566 -51.73,48.816 -26.52,28.493 -51.3,58.672 -78.62,86.301 -20.1,20.379 -44.14,36.742 -64.89,56.473 -27.4,26.019 -53.71,53.488 -80.23,80.297 -14.18,14.261 -31.35,26.531 -41.5,43.271 -21.57,35.14 -57,38.94 -91.34,46.62 -1.75,0.36 -4.09,-2.42 -6.15,-3.73 -17.24,-10.75 -34.56,-21.41 -53.47,-33.18 -0.29,-4.81 1.31,-13.01 -1.4,-19.36 -3.43,-8.32 -3.8,-13.44 3.37,-19.8 2.4,-2.26 2.91,-10.38 0.87,-13.438 -11.25,-15.793 -17.02,-31.571 -13.52,-51.961 4.31,-24.922 4.02,-50.493 5.99,-75.852 0.88,-10.449 3.52,-20.82 3.58,-31.199 0.44,-41.059 -0.87,-81.981 0.44,-122.899 1.54,-49.39 7.82,-98.64 7.09,-147.902 -0.8,-45.008 3.29,-89.648 4.83,-134.437 1.6,-39.321 3.65,-78.633 5.04,-117.942 0.8,-18.41 -0.22,-36.832 0.95,-55.238 2.11,-35.953 4.89,-71.902 8.03,-107.852 0.73,-7.461 3.36,-15.058 6.51,-21.851 12.71,-26.379 36.17,-42.1604 59.33,-58.1682 12.13,-8.4024 42.38,-10.582 50.12,-4.1602 z"
         id="path210" /></clipPath><linearGradient
       x1="0"
       y1="0"
       x2="1"
       y2="0"
       gradientUnits="userSpaceOnUse"
       gradientTransform="matrix(1e-7,1181.28,1181.28,-1e-7,7554.11,-45.7902)"
       spreadMethod="pad"
       id="linearGradient218"><stop
         style="stop-opacity:1;stop-color:#1b385a"
         offset="0"
         id="stop214" /><stop
         style="stop-opacity:1;stop-color:#578569"
         offset="1"
         id="stop216" /></linearGradient><clipPath
       clipPathUnits="userSpaceOnUse"
       id="clipPath228"><path
         d="m 8767.08,133.449 c 0.29,32.442 -0.08,64.731 -0.45,97.18 -0.36,39.601 -2.56,79.281 -1.23,118.812 1.75,53.641 6.28,107.27 9.57,160.829 0.36,5.992 0.8,12.05 0.66,18.05 -0.52,21.039 -2.27,42.09 -1.75,63.129 1.3,48.879 3.49,97.77 5.76,146.582 0.37,7.02 3.29,13.739 5.26,20.598 4.46,-4.52 9.13,-8.758 13.16,-13.738 19.43,-24.551 38.65,-49.243 58.01,-73.789 8.48,-10.961 17.4,-21.481 26.09,-32.301 20.82,-26.313 41.65,-52.762 62.18,-79.211 9.72,-12.488 18.77,-25.578 28.65,-38 18.56,-23.82 38.13,-46.762 56.12,-71.008 12.13,-16.371 21.41,-34.871 33.1,-51.531 20.53,-28.86 42.01,-56.91 62.68,-85.563 8.19,-11.109 15.5,-23.008 23.46,-34.34 17.91,-25.347 36.03,-50.418 53.86,-75.777 8.83,-12.851 14.54,-29.59 26.3,-38.5 24.49,-18.269 41.28,-50.269 78.41,-48.082 1.68,0.141 3.58,-1.758 5.47,-2.641 26.16,-13.578 52.91,-9.636 73.6,10.672 3.2,3.219 6.49,6.442 10.15,8.918 13.81,9.133 23.16,45.891 16.14,60.434 -2.92,5.769 -5.11,12.637 -5.4,18.988 -0.58,16.52 -0.07,33.031 0.14,49.539 0.29,27.992 1.03,56.129 1.32,84.18 0.29,44.281 0.73,88.641 0.73,132.91 0,16.961 -1.09,33.84 -1.32,50.859 -0.58,39.911 -0.44,79.954 -1.38,120.063 -0.66,22.371 -4.31,44.648 -3.88,66.859 0.37,36.461 3.58,72.782 4.68,109.239 0.58,23.382 -1.75,46.992 -0.66,70.371 0.66,12.199 8.99,24.261 8.55,36.242 -0.44,17.387 -3.95,35.078 -9.21,51.797 -5.99,19.521 -10.74,39.241 -33.46,50.061 -17.91,8.62 -35.08,17.09 -54.95,16.66 -20.1,-0.44 -38.37,-4.38 -51.38,-23.68 -13.14,-19.66 -40.1,-31.709 -31.19,-62.401 0.51,-1.527 -0.58,-4.089 -1.83,-5.48 -6.79,-7.52 -7.82,-14.18 0,-22.07 2.71,-2.77 3.07,-8.399 3.51,-12.778 1.47,-13.449 2.63,-26.89 3.44,-40.48 1.89,-29.821 4.67,-59.551 5.11,-89.371 0.22,-36.02 -1.68,-71.969 -2.71,-107.918 -0.21,-4.821 -1.6,-9.793 -1.38,-14.621 2.12,-32.95 5.03,-65.903 6.5,-98.86 0.66,-14.91 -2.7,-30.031 -2.34,-45.011 0.66,-29.961 3.22,-59.848 3.66,-89.809 0.28,-14.461 -1.98,-28.93 -3.22,-43.473 -1.31,-0.218 -2.63,-0.59 -4.1,-0.879 -9.49,11.262 -20.23,21.852 -28.85,33.832 -21.85,31.27 -43.12,62.981 -64.15,94.848 -9.65,14.543 -17.84,29.961 -27.11,44.859 -6.37,10.454 -12.8,21.262 -20.61,30.704 -14.84,17.957 -31.43,34.488 -46.19,52.597 -10.67,13.231 -19.43,27.621 -31.27,40.192 -20.1,21.41 -38.21,44.57 -56.62,67.371 -14.11,17.386 -27.11,35.359 -41,52.898 -16.95,21.93 -35,43.121 -51.23,65.629 -20.38,28.051 -39.16,57.281 -58.96,85.781 -6.21,9.059 -12.85,17.75 -19.36,26.668 -13.82,19.292 -27.33,38.652 -41.37,57.802 -1.46,2.27 -4.23,4.67 -6.79,5.11 -16.58,3.44 -33.83,4.82 -49.91,9.5 -22.79,6.87 -37.7,-6.06 -53.33,-18.12 -8.4,-6.43 -16.23,-13.67 -25.14,-19.29 -11.04,-7.01 -20.02,-22.36 -16.95,-34.49 6.42,-25.289 13.51,-50.199 12.42,-76.719 -0.44,-9.801 5.48,-19.949 4.09,-29.453 -6.14,-44.937 -4.24,-89.797 -1.91,-134.957 1.39,-27.851 0.08,-55.832 -1.01,-83.75 -1.09,-27.32 -4.68,-54.652 -5.12,-81.98 -0.37,-33.172 2.78,-66.629 1.9,-99.809 -1.02,-36.902 -6.35,-73.66 -6.72,-110.48 -0.59,-37.563 3,-75.122 4.16,-112.68 0.37,-13.453 -1.53,-27.031 -1.97,-40.481 -0.73,-24.402 0.29,-48.953 -2.19,-73.062 -1.31,-12 -1.76,-21.57 8.03,-29.668 2.34,-1.762 4.47,-4.172 5.85,-6.731 19.36,-35.648 49.03,-47.6402 88.49,-41.5698 31.57,4.8906 58.16,32.5898 58.39,63.7888 z"
         id="path226" /></clipPath><linearGradient
       x1="0"
       y1="0"
       x2="1"
       y2="0"
       gradientUnits="userSpaceOnUse"
       gradientTransform="matrix(1e-7,1181.23,1181.23,-1e-7,9008.57,-45.7701)"
       spreadMethod="pad"
       id="linearGradient234"><stop
         style="stop-opacity:1;stop-color:#1b385a"
         offset="0"
         id="stop230" /><stop
         style="stop-opacity:1;stop-color:#578569"
         offset="1"
         id="stop232" /></linearGradient><clipPath
       clipPathUnits="userSpaceOnUse"
       id="clipPath244"><path
         d="m 5127.37,76.8789 c 8.63,16.6602 18.12,32.1601 13.45,53.4221 -3.36,15.058 0.29,31.789 1.17,47.719 0.88,18.851 2.78,37.699 3.22,56.699 0.65,22.953 0.14,45.89 0.43,68.832 0,14.918 -0.15,29.89 0.95,44.719 3.43,40.921 7.97,81.769 10.89,122.761 1.75,24.41 1.02,49.028 2.05,73.508 1.6,40.84 3.65,81.691 5.69,122.609 0.52,10.532 1.9,21.043 2.78,31.571 1.61,0.293 3.36,0.59 4.97,0.883 8.62,-13.161 18.26,-25.872 25.87,-39.614 17.24,-31.269 33.02,-63.347 50.34,-94.629 18.85,-33.527 38.95,-66.418 58.24,-99.668 7.23,-12.339 14.03,-25.062 21.99,-37.043 11.77,-17.539 25.14,-34.199 36.68,-51.949 16.3,-24.84 31.57,-50.34 46.99,-75.64 8.98,-14.309 18.85,-28.34 26.16,-43.387 10.3,-20.981 18.7,-42.891 28.05,-64.301 1.18,-2.641 3.3,-5.262 5.42,-7.019 17.31,-13.743 31.92,-28.352 28.42,-53.493 -0.66,-4.238 4.46,-9.648 7.74,-14.019 3.37,-4.32 8.11,-7.531 11.26,-11.918 16.95,-23.3829 34.04,-44.3517 67.52,-45.0822 17.02,-0.4414 31.34,0.8711 44.42,11.8399 4.68,4.082 10.16,7.6016 15.78,10.3711 19,9.9375 26.53,24.6992 24.41,46.1792 -1.68,19.141 -3.36,38.43 -3.29,57.801 0.07,31.34 1.18,62.77 2.63,94.117 0.8,22.282 2.92,44.641 4.82,66.852 1.1,12.57 3.22,24.852 4.23,37.422 4.24,46.18 7.97,92.508 12.44,138.609 4.89,48.891 11.02,97.688 15.04,146.649 1.61,18.859 -0.72,38 -0.14,57 1.75,52.898 4.17,105.718 6.94,158.492 0.88,15.488 -0.15,33.527 7.31,45.656 13.37,21.934 1.09,40.774 -4.16,58.391 -4.98,16.291 -20.61,30.551 -34.42,42.451 -9.35,8.04 -23.75,14.33 -35.81,14.17 -25.35,-0.21 -51.3,-4.01 -66.42,-29.8 -1.31,-2.35 -4.9,-3.44 -6.94,-5.49 -4.46,-4.52 -12.13,-8.99 -12.57,-14.101 -3.29,-34.187 -5.77,-68.461 -7.01,-102.808 -1.09,-38.071 -0.45,-76.059 -0.95,-114.2 -0.44,-27.05 -1.54,-54.16 -2.99,-81.25 -1.76,-36.402 -3.88,-72.793 -6.21,-109.031 -0.59,-7.601 -2.64,-14.91 -3.36,-22.359 -4.98,-49.692 -9.58,-99.379 -14.77,-148.922 -0.29,-2.848 -3.14,-6.141 -5.63,-7.598 -1.17,-0.73 -5.19,1.981 -6.94,4.02 -7.16,9.57 -14.54,19.07 -20.9,29.16 -10.52,16.809 -20.02,34.199 -30.69,50.988 -12.42,19.742 -26.52,38.301 -38.65,58.25 -16.59,27.25 -31.93,55.16 -47.72,82.789 -2.77,4.75 -5.18,9.641 -8.18,14.321 -13.96,22.871 -28.57,45.453 -41.94,68.613 -16.81,28.867 -32.44,58.527 -49.4,87.316 -13.44,22.942 -28.42,44.871 -42.01,67.742 -12.13,20.379 -22.73,41.86 -34.86,62.18 -9.79,16.949 -26.23,30.399 -26.89,52.238 0,2.711 -2.04,5.993 -4.09,7.821 -24.11,21.411 -50.93,36.681 -84.61,35.001 -12.5,-0.51 -52.47,-26.3 -58.9,-36.458 -7.45,-11.84 -15.93,-23.024 -24.33,-34.793 13.23,-5.098 -12.5,-29.367 9.28,-32.137 0,-31.711 0.29,-61.973 -0.07,-92.371 -0.52,-33.75 -1.39,-67.652 -2.34,-101.641 -0.37,-15.55 -2.12,-31.05 -1.97,-46.461 0.29,-27.41 2.92,-54.738 1.89,-82 -1.6,-44.929 -5.11,-89.8 -8.11,-134.66 -3.29,-50.488 -7.16,-100.98 -10.3,-151.398 -1.46,-24.992 -1.75,-49.91 -2.7,-74.821 -0.3,-13.011 -0.95,-26.019 -1.17,-38.949 -0.29,-18.492 0.29,-36.902 -0.44,-55.32 -0.81,-21.77 -0.22,-42.602 17.17,-59.3321 7.01,-6.7305 11.55,-16 18.71,-26.0078 7.3,-4.3906 17.53,-11.5508 28.86,-16.082 9.72,-3.8008 21.99,-8.4688 31.2,-5.7696 18.12,5.4805 36.83,13.3711 46.47,32.3594 z"
         id="path242" /></clipPath><linearGradient
       x1="0"
       y1="0"
       x2="1"
       y2="0"
       gradientUnits="userSpaceOnUse"
       gradientTransform="matrix(1e-7,1181.3,1181.3,-1e-7,5356.51,-45.8)"
       spreadMethod="pad"
       id="linearGradient250"><stop
         style="stop-opacity:1;stop-color:#1b385a"
         offset="0"
         id="stop246" /><stop
         style="stop-opacity:1;stop-color:#578569"
         offset="1"
         id="stop248" /></linearGradient><clipPath
       clipPathUnits="userSpaceOnUse"
       id="clipPath260"><path
         d="m 4235.33,104.359 c 7.67,-2.769 14.76,-7.3004 22.21,-11.2496 20.9,-11.1797 40.63,-25.418 62.84,-32.7305 20.32,-6.6484 43.26,-5.6992 65.04,-8.6172 14.03,-1.9101 28.06,-6.7304 42.16,-6.4414 12.2,0.2891 24.63,4.9688 36.46,9.211 19.73,6.9375 39.31,14.457 58.46,23.0976 20.31,9.2031 42.89,16.793 59.18,31.1211 23.46,20.539 42.39,46.328 62.92,70.07 11.69,13.231 23.02,26.75 36.75,42.899 0,-18.707 3.22,-33.469 -0.66,-45.887 -7.52,-22.871 0.95,-39.902 13.67,-56.422 21.19,-27.2498 49.25,-42.0819 83.81,-42.3006 7.82,-0.0703 16.88,3.1406 23.31,7.7422 8.04,6.0703 12.71,17.3984 21.26,22.2894 16.22,9.347 19.73,24.55 19.08,39.308 -1.76,37.711 -4.24,75.563 -10.09,112.832 -4.38,28.047 -3.65,54.5 4.97,81.321 1.82,5.777 3.66,14.839 0.8,18.488 -9.2,11.691 -5.84,23.738 -4.67,35.949 0.36,3.941 2.12,8.481 0.8,11.832 -10.23,24.777 -3.94,50.719 -5.84,76.07 -1.1,14.387 0.87,28.868 1.46,43.481 0.58,0.219 1.31,0.508 1.82,0.797 -1.02,4.972 -2.7,9.871 -3.28,14.91 -2.78,39.012 -5.49,78.043 -7.83,117.133 -1.09,16.797 -2.04,33.758 -1.24,50.707 0.59,11.84 6.58,23.461 6.29,35.082 -0.51,21.91 -3.58,43.769 -5.92,65.609 -1.61,15.719 -6.28,31.57 -5.04,47.059 2.78,36.75 -1.46,72.41 -11.11,107.562 -4.09,14.758 -11.1,28.93 -14.32,43.839 -6.72,30.25 -49.1,48.16 -74.09,29.59 -23.02,-17.02 -45.38,-35.15 -67.45,-53.491 -5.11,-4.231 -9.86,-10.297 -12.06,-16.508 -5.99,-17.172 -15.7,-34.27 -4.82,-53.27 1.32,-2.269 -1.31,-6.64 -1.68,-10.082 -0.51,-3.879 -1.97,-8.918 -0.29,-11.539 8.4,-13.519 3.43,-27.34 2.41,-41 -0.58,-8.039 -1.17,-16.07 -1.17,-24.039 -0.14,-34.48 0,-68.98 -0.36,-103.472 -0.37,-24.547 -1.54,-49.168 -2.12,-73.797 -0.51,-20.024 0.44,-40.184 -1.61,-60.063 -1.75,-17.969 -8.04,-35.219 -10.08,-53.117 -6.43,-55.391 -10.01,-111.441 -30.4,-164.191 -11.62,-29.961 -24.55,-59.629 -39.68,-88.051 -10.23,-19.149 -24.91,-36.02 -38.51,-53.27 -23.09,-29.23 -52.46,-48.808 -90.46,-51.441 -51.07,-3.578 -93.16,19.59 -117.49,60.43 -5.7,9.57 -11.99,18.921 -16.08,29.011 -7.89,19.371 -15.78,38.95 -20.9,59.192 -4.45,17.457 -4.74,36.019 -7.45,54.058 -4.38,28.801 -10.45,57.508 -13.45,86.379 -2.48,22.789 -1.02,45.891 -2.48,68.832 -2.77,40.18 -7.09,80.379 -9.21,120.707 -0.94,17.832 2.34,35.961 2.71,53.934 0.8,33.898 0.37,67.949 1.75,101.848 1.1,28.07 5.48,56.062 5.85,83.968 0.36,31.782 0.36,63.492 -10.89,94.762 -5.7,15.65 -16.81,23.68 -25.5,35.08 -11.11,14.54 -24.34,15.49 -39.97,10.16 -2.71,-0.95 -5.99,0 -8.92,0.58 -18.56,3.58 -45.67,-7.16 -54.94,-22.87 -5.41,-9.35 -15.35,-23.962 -12.28,-28.641 8.4,-12.418 2.63,-22.95 2.05,-34.047 -1.32,-25.43 -3.81,-50.641 -4.97,-76 -2.34,-48.813 -4.39,-97.621 -6.51,-146.434 -1.02,-22.508 -2.12,-45.019 -3.06,-67.519 -0.81,-18.411 -2.05,-36.821 -1.83,-55.309 0.21,-17.461 1.61,-34.93 3.36,-52.391 1.46,-16.73 5.99,-33.468 5.7,-50.269 -0.44,-36.102 12.93,-71.031 5.48,-107.86 -2.34,-11.691 5.77,-25.429 9.42,-38.289 9.36,-32.882 13.16,-66.781 26.45,-99.23 13.01,-32.082 31.13,-60.281 49.84,-88.563 8.91,-13.726 21.41,-25.57 27.77,-40.25 7.3,-16.449 19.72,-22.808 34.63,-28.289 z"
         id="path258" /></clipPath><linearGradient
       x1="0"
       y1="0"
       x2="1"
       y2="0"
       gradientUnits="userSpaceOnUse"
       gradientTransform="matrix(1e-7,1181.33,1181.33,-1e-7,4457.27,-45.8201)"
       spreadMethod="pad"
       id="linearGradient266"><stop
         style="stop-opacity:1;stop-color:#1b385a"
         offset="0"
         id="stop262" /><stop
         style="stop-opacity:1;stop-color:#578569"
         offset="1"
         id="stop264" /></linearGradient><clipPath
       clipPathUnits="userSpaceOnUse"
       id="clipPath276"><path
         d="m 9689.37,223.609 c 1.75,9.942 1.82,20.032 2.55,29.961 1.47,23.461 3.73,46.918 4.54,70.442 0.73,29.226 0,58.75 0.43,87.976 0.74,41.141 2.04,82.203 2.63,123.34 0.22,19.004 -1.39,38.082 -0.8,57.07 0.88,19.954 4.32,39.973 4.75,59.782 0.66,29.441 -0.95,58.879 -0.51,88.34 0.44,37.179 2.19,74.378 2.69,111.652 0.16,16.219 -0.93,32.59 -2.25,48.808 -1.76,21.192 3,26.739 23.67,31.848 55.31,13.371 107.33,-0.648 158.86,-18.547 18.12,-6.293 36.31,-13.601 52.75,-23.531 31.2,-18.789 58.09,-42.898 83.82,-68.84 21.9,-22.351 35.4,-47.191 40.3,-77.672 1.3,-8.187 6.5,-15.707 8.7,-23.816 6.2,-23.024 12,-46.25 18,-69.352 -1.5,-0.289 -2.9,-0.582 -4.3,-0.871 1.2,-10.961 2.5,-21.918 4,-32.66 6.5,-47.937 8.3,-95.277 -5.9,-142.559 -10,-33.109 -14.8,-67.808 -25.9,-100.48 -5.6,-16.801 -19.2,-31.352 -30.7,-45.809 -15.8,-19.8 -32.2,-39.461 -50.24,-57.222 -7.82,-7.809 -20.61,-10.739 -31.2,-15.989 -13.23,-6.73 -25.8,-16.23 -39.9,-19.878 -28.42,-7.313 -57.65,-11.762 -86.58,-16.961 -17.91,-3.211 -35.96,-6.719 -54.08,-8.321 -20.74,-2.05 -41.57,-2.05 -62.54,-2.851 -11.54,-0.367 -14.77,5.191 -12.79,16.14 z m 77.38,-150.0074 c 37.77,2.8476 75.55,5.1875 112.6,11.7578 30.1,5.4922 59.33,16.8206 88.71,26.0196 17.96,5.621 36.64,10.23 53.44,18.562 27.7,13.59 52.5,32 73.6,54.868 23,24.929 46.5,49.48 69,74.972 6.5,7.16 9.5,17.399 14.8,25.801 24.4,38.43 47.5,77.309 52.4,124.207 2.8,27.781 8.6,55.32 11.9,83.012 4.9,41.14 9.3,82.418 1.3,123.711 -2.1,10.75 -4.7,21.488 -6.2,32.379 -2.6,19.648 -2.6,39.968 -7.7,58.89 -8.2,30.25 -19.4,59.848 -30,89.438 -4.1,11.761 -9.2,23.383 -15.8,33.761 -15.9,24.692 -25.7,53.192 -49.7,72.7 -17.2,13.961 -32.2,30.55 -48.4,45.672 -4.4,4.168 -10.4,6.937 -13.6,11.687 -13.9,19.949 -36.1,27.043 -55.9,37.633 -19.69,10.448 -39.93,20.378 -60.32,29.438 -16.67,7.31 -34.06,14.04 -51.44,19.3 -24.55,7.45 -49.55,13.44 -74.61,19.73 -8.11,2.12 -16.58,4.68 -24.77,4.68 -21.99,0 -43.77,-1.32 -65.46,-2.05 -3.01,-0.07 -6.29,0.14 -9,1.17 -22.58,7.74 -44.5,9.5 -67.59,0.14 -14.1,-5.55 -30.04,-10.45 -44.79,-9.64 -20.9,1.25 -36.97,-2.19 -48.74,-20.61 -2.56,-4.31 -8.04,-7.3 -12.64,-9.93 -30.62,-16.81 -39.53,-38.591 -31.56,-69.349 11.68,-45.59 16.43,-92.153 13.14,-139.492 -1.6,-22.719 -0.29,-45.661 -0.36,-68.469 -0.07,-24.481 0.51,-48.949 -0.58,-73.36 -1.1,-27.98 -4.97,-55.75 -5.34,-83.589 -0.29,-17.832 5.7,-35.731 5.34,-53.559 -0.74,-39.023 -4.68,-77.891 -5.63,-116.844 -0.65,-27.316 2.78,-54.726 2.12,-81.976 -1.17,-52.403 -3.8,-104.723 -6.06,-163.473 1.45,-9.93 2.99,-26.23 6.14,-42.23 4.52,-23.09 26,-33.098 40.84,-47.6371 22.07,-21.7735 53.26,-21.7735 81.98,-22.0625 36.32,-0.3008 72.63,2.1094 108.88,4.7422 z"
         id="path274" /></clipPath><linearGradient
       x1="0"
       y1="0"
       x2="1"
       y2="0"
       gradientUnits="userSpaceOnUse"
       gradientTransform="matrix(1e-7,1181.31,1181.31,-1e-7,9886.21,-45.8201)"
       spreadMethod="pad"
       id="linearGradient282"><stop
         style="stop-opacity:1;stop-color:#1b385a"
         offset="0"
         id="stop278" /><stop
         style="stop-opacity:1;stop-color:#578569"
         offset="1"
         id="stop280" /></linearGradient><clipPath
       clipPathUnits="userSpaceOnUse"
       id="clipPath292"><path
         d="m 3260.58,501.5 c 3.07,25.789 6.57,51.52 10.08,77.309 1.53,11.261 1.9,22.871 5.12,33.839 9.49,33.614 22.79,66.192 29.81,100.243 7.08,35.66 23.97,64.597 46.47,91.918 12.28,14.91 20.75,33.031 33.1,47.929 10.6,13.012 23.02,25.301 36.68,34.942 23.24,16.441 47.64,31.269 72.27,45.441 13.37,7.75 28.13,13.078 42.45,18.859 3.43,1.391 8.99,1.68 11.76,-0.14 25.95,-17.102 56.71,-14.328 85.06,-20.981 17.54,-4.16 36.24,-7.238 51.58,-15.847 22.15,-12.422 43.27,-28.282 56.56,-50.942 14.18,-24.031 28.94,-48.3 38.87,-74.16 10.24,-26.89 16.16,-55.832 21.49,-84.32 5.55,-29.738 8.48,-60.141 12.42,-90.461 -3.21,-31.859 -3.72,-64.02 -10.38,-94.988 -11.25,-52.903 -25.64,-105.52 -39.89,-157.84 -13.44,-48.36 -40.33,-88.563 -80.01,-119.18 -30.04,-23.23 -64.6,-37.769 -100.48,-49.75 -54.21,-18.133 -108.72,-12.941 -161.11,2.77 -43.33,13.16 -84.98,34.629 -108.81,77.308 -8.25,14.68 -12.71,31.281 -20.16,46.403 -23.24,47.046 -28.21,98.269 -34.93,149.07 -1.31,10.578 0.66,21.769 2.05,32.578 z m -99.67,216.359 c -11.77,-41.211 -24.7,-82.129 -34.78,-123.711 -5.56,-22.707 -8.41,-46.457 -9.14,-69.918 -0.8,-24.628 5.19,-49.539 3.58,-74.089 -3.21,-47.571 8.19,-90.832 29.52,-132.629 4.09,-7.973 3.8,-18.34 7.24,-26.903 4.6,-11.019 13.3,-20.668 16.29,-32.07 6.73,-26.301 22.51,-48.367 37.41,-69.41 18.12,-25.277 46.47,-42.527 63.35,-69.777 0.96,-1.473 3.22,-2.782 4.97,-2.93 16.74,-1.231 28.72,-10 42.68,-19.2111 21.85,-14.1796 49.9,-18.5703 75.48,-27.1093 8.04,-2.5625 16.22,-5.0508 24.4,-6.8711 18.93,-4.5313 37.86,-11.1914 57,-12.1992 21.85,-1.25 43.77,2.6992 65.62,4.3789 41.79,1.2382 82.13,7.6015 119.54,28.0586 21.77,11.9804 45.6,20.0192 67.81,31.1332 15.93,8.027 33.17,15.929 45.74,28.058 29.23,28.352 64.3,51.36 84.91,88.399 11.83,21.203 28.79,39.761 38.87,61.613 12.35,26.519 21.78,54.879 29.23,83.367 8.48,32.742 13.45,66.492 19.95,99.742 4.6,23.309 10.66,46.481 13.08,69.93 2.85,27.469 4.16,55.32 2.85,82.789 -1.83,35.871 -7.09,71.391 -10.3,107.191 -4.39,50.418 -33.03,92.368 -49.99,138.399 -10.44,28.5 -34.77,52.019 -53.41,77.308 -4.02,5.543 -11.69,8.332 -15.42,14.024 -18.7,28.5 -45.3,46.768 -74.53,62.628 -13.3,7.15 -31.57,8.62 -36.61,27.4 -0.58,2.04 -3.43,3.65 -5.55,4.81 -16.88,10.09 -32.37,19.3 -54.29,21.19 -32.08,2.93 -63.43,3.08 -94.99,0.23 -15.27,-1.39 -30.47,-7.01 -45.45,-6.36 -21.63,1.03 -40.48,-8.33 -59.55,-14.03 -25,-7.24 -48.09,-21.48 -71.1,-34.05 -18.05,-9.94 -36.98,-19.65 -51.88,-33.388 -38.88,-36.243 -79.94,-70.661 -109.46,-116.18 -25.28,-39.16 -52.61,-77.16 -63.06,-123.781 -2.56,-12.129 -6.65,-24.051 -10.01,-36.032 z"
         id="path290" /></clipPath><linearGradient
       x1="0"
       y1="0"
       x2="1"
       y2="0"
       gradientUnits="userSpaceOnUse"
       gradientTransform="matrix(1e-7,1181.27,1181.27,-1e-7,3541.97,-45.76)"
       spreadMethod="pad"
       id="linearGradient298"><stop
         style="stop-opacity:1;stop-color:#1b385a"
         offset="0"
         id="stop294" /><stop
         style="stop-opacity:1;stop-color:#578569"
         offset="1"
         id="stop296" /></linearGradient><clipPath
       clipPathUnits="userSpaceOnUse"
       id="clipPath308"><path
         d="m 6028.04,186.051 c 29.37,-11.832 61.01,-16.281 89.88,-31.199 17.68,-9.133 40.69,-7.961 58.81,-16.43 24.12,-11.402 48.88,-8.922 73.44,-10.813 27.26,-2.129 54.51,-3.148 81.62,3.493 16.44,4.097 35.37,0.878 50.06,7.527 25.56,11.332 51.87,22.582 72.85,42.68 11.03,10.589 21.7,22.281 34.7,29.961 24.05,13.949 42.09,33.679 58.75,55.019 5.26,6.43 12.13,11.981 15.28,19.141 4.89,10.968 6.72,23.242 10.81,34.492 10.38,28.348 29.3,53.269 32.37,84.758 1.75,18.558 7.09,36.691 10.66,55.031 1.1,4.891 0.15,11.609 3,14.539 10.31,10.082 5.7,20.531 4.17,32 -0.81,5.922 4.46,16.879 9.49,18.559 11.76,4.242 25.06,4.461 33.7,5.703 23.3,-3.953 39.53,3.367 54.57,13.437 24.63,16.52 41.79,36.242 25.65,68.25 -0.14,0.449 0,1.02 -0.07,1.61 -2.42,27.632 -29.01,52.472 -56.71,52.832 -4.01,0.07 -8.83,-0.52 -11.98,1.39 -17.1,10.449 -34.71,3.578 -51.87,1.68 -30.18,-3.141 -60,-8.922 -90.02,-10.231 -35.88,-1.679 -72.05,1.75 -108.01,-3.441 -9.65,-1.457 -19.87,-0.5 -29.96,-1.457 -25.94,-2.773 -52.02,-5.992 -77.96,-8.98 -11.18,-1.391 -22.51,-2.122 -33.25,-5.043 -10.59,-2.93 -21.19,-7.387 -30.83,-12.571 -8.77,-4.679 -16.3,-11.687 -24.85,-16.808 -11.26,-6.578 -17.9,-21.7 -9.71,-31.27 14.31,-17.031 28.49,-35.808 46.91,-47.211 23.45,-14.469 51.73,-16 79.57,-13.301 29.3,2.922 58.89,5.043 88.42,6.293 4.31,0.219 12.42,-5.632 12.71,-8.992 1.02,-26.16 3.21,-52.898 -0.66,-78.48 -3.36,-22.278 -14.4,-43.41 -21.99,-65.028 -1.47,-4.171 -1.98,-8.839 -3.59,-12.941 -3.79,-10.07 -6.43,-21.629 -13.15,-29.648 -23.17,-28.071 -44.49,-59.571 -86.29,-62.114 -14.77,-14.769 -35.45,-9.066 -51.59,-9.508 -40.26,-1.39 -80.74,4.102 -119.04,19.29 -19.94,7.89 -40.33,14.902 -59.4,24.699 -17.54,8.91 -33.76,20.75 -50.2,32.082 -17.68,12.269 -28.93,29.73 -34.56,50.418 -3.94,13.812 -4.6,28.562 -8.7,42.301 -10.89,36.468 -10.01,73.949 -11.31,111.21 -0.45,15.129 0.42,30.481 2.48,45.532 2.98,24.41 7.52,48.66 11.17,73 4.9,31.199 7.67,62.828 14.47,93.519 8.77,38.59 20.39,76.731 48.01,106.981 17.61,19.437 34.92,39.457 54.8,56.269 18.48,15.418 39.38,28.199 60.65,39.598 13.67,7.23 29.67,9.652 44.5,14.101 1.9,0.579 4.01,-0.07 5.85,-0.07 8.61,-0.148 17.17,0.879 25.64,-0.59 9.79,-1.609 19.81,-4.461 29.09,-8.468 7.74,-3.364 13.66,-11.481 21.48,-13.301 23.82,-5.563 35.88,-19.879 40.04,-43.629 1.53,-9.422 5.7,-20.024 11.98,-26.594 14.62,-14.687 30.91,-27.84 47.2,-40.629 15.06,-11.758 41.87,-8.109 56.27,4.102 13.01,11.019 22.65,23.16 25.8,40.109 0.87,5.11 5.25,9.789 5.25,14.762 0.15,7.308 -1.68,14.898 -3.36,22.219 -2.56,11.019 -4.02,22.937 -8.91,33.031 -12.42,26 -25.43,52.228 -53.34,66.188 -2.12,1.17 -3.15,4.1 -5.05,5.55 -18.26,13.16 -35.36,28.35 -55.09,38.73 -35.07,18.12 -73.37,28.35 -112.31,34.13 -16.29,2.41 -33.69,6.35 -49.24,2.92 -27.27,-5.92 -53.21,-16.73 -79.58,-26.16 -7.75,-2.85 -14.17,-8.84 -21.93,-12.35 -15.56,-7.37 -33.24,-11.77 -46.98,-21.63 -30.69,-21.7 -59.84,-45.671 -88.99,-69.421 -9.21,-7.449 -17.83,-16.219 -24.34,-25.93 -12.21,-18.199 -23.16,-37.199 -33.47,-56.57 -11.54,-21.551 -28.56,-41.27 -25.72,-68.449 0.52,-4.239 -0.87,-8.848 -2.04,-13.16 -6.42,-24.989 -14.39,-49.68 -19.59,-74.969 -4.45,-22.512 -4.31,-46.031 -9.49,-68.321 -7.53,-32.371 -14.9,-64.16 -11.7,-97.769 4.53,-48.082 8.11,-96.231 12.35,-144.391 0.88,-8.832 2.56,-17.75 5.35,-26.23 5.76,-18.852 11.67,-37.699 18.7,-56.121 6.65,-16.949 7.96,-36.391 23.67,-49.25 16.8,-13.739 33.32,-27.91 49.75,-41.938 10.32,-8.84 19.89,-18.562 30.47,-26.82 14.41,-11.031 28.07,-24.402 44.44,-30.91 z"
         id="path306" /></clipPath><linearGradient
       x1="0"
       y1="0"
       x2="1"
       y2="0"
       gradientUnits="userSpaceOnUse"
       gradientTransform="matrix(1e-7,1181.28,1181.28,-1e-7,6298.35,-45.8)"
       spreadMethod="pad"
       id="linearGradient314"><stop
         style="stop-opacity:1;stop-color:#1b385a"
         offset="0"
         id="stop310" /><stop
         style="stop-opacity:1;stop-color:#578569"
         offset="1"
         id="stop312" /></linearGradient><clipPath
       clipPathUnits="userSpaceOnUse"
       id="clipPath324"><path
         d="m 10558.6,28.7383 c 32.1,-5.6289 63.1,-16.8789 94.9,-24.33986 38.5,-8.91016 76.3,-3.0586 114,6.72266 26.5,6.8789 51.6,14.9102 73.4,32.1602 29.4,23.7382 59.2,47.0468 89,70.5077 1.1,0.949 1.7,2.41 2.4,3.731 19.4,38.289 39.8,76.14 57.8,115.011 7.5,16.297 11.4,34.641 14.7,52.457 3,16.371 3.3,33.321 4.5,49.981 0.9,11.109 2.4,22.293 2,33.32 -0.8,18.199 -2.2,36.391 -4.6,54.371 -4,28.57 -7.6,57.129 -14,85.199 -5.4,23.532 -13.7,46.621 -22.6,69.121 -7.3,18.852 -15.4,38.071 -26.9,54.508 -17.1,24.481 -36.7,47.352 -56.7,69.563 -12.9,14.328 -26.8,28.789 -43,38.59 -23.5,14.019 -49.5,23.23 -74.2,35.289 -21.1,10.601 -40.7,24.851 -62.7,32.949 -29.5,10.891 -54.5,28.07 -78.9,46.91 -8,6.289 -16,12.43 -23.4,19.301 -14.8,13.59 -26.3,28.351 -22.4,50.851 3.4,20.098 10,37.637 32,42.528 19.7,4.531 40,9.211 60.2,9.363 33.1,0.207 56.1,-14.551 68.7,-48.383 10.5,-28.5 29.8,-54.937 65.6,-51.73 16.6,1.453 32.3,12.863 48.2,20.16 18.3,8.332 25.2,23.09 25.6,43.269 -2,7.961 -4.3,15.782 -5.8,23.813 -2.6,12.719 -4.2,25.5 -7,38.069 -1.3,6 -3.2,13.08 -7.3,17.1 -15.1,14.83 -30.7,29 -46.8,42.74 -37.5,31.79 -83,44.8 -130.2,49.4 -41.1,3.94 -82.7,1.76 -122.8,-11.4 -9.3,-3.06 -17.9,-9.35 -27.4,-10.59 -21.1,-2.92 -36.8,-13.67 -49.1,-30.03 -5.5,-7.17 -9.5,-15.93 -16.4,-21.27 -22.4,-17.76 -30.3,-43.48 -41.1,-68.031 -12.3,-28.558 -2.5,-56.988 3.3,-83.301 7,-32.437 28.4,-60.5 51.3,-85.339 17.5,-18.86 36.9,-36.239 56.4,-53.34 10.8,-9.5 22.6,-18.188 35.2,-24.989 23.7,-13.011 48.8,-23.671 72.7,-36.242 22.4,-11.976 44.3,-25.718 66.8,-37.847 14.3,-7.61 29.9,-12.719 44.2,-20.692 14.1,-8.097 28.8,-16.66 40.7,-27.609 37.1,-34.27 45.4,-82.36 57.3,-128.102 6.9,-26.879 9.8,-54.937 13.9,-82.566 0.8,-5.113 -1,-10.813 -2,-16.07 -0.8,-5.852 -2.4,-11.622 -3.7,-17.403 -5,-25.277 -7.7,-51.219 -15.4,-75.539 -7.3,-22.441 -19.2,-43.41 -30.5,-64.308 -6.2,-11.692 -13.9,-23.672 -23.7,-32.231 -16.1,-13.949 -34.8,-24.762 -51.5,-38.062 -16.8,-13.227 -35.3,-19 -56,-16.809 -16.9,1.602 -33.5,5.84 -50.2,6.941 -37.3,2.418 -68.9,17.61 -98.1,39.829 -7.9,5.992 -19.5,9.281 -24.1,16.941 -14.9,24.117 -28.6,49.41 -31.8,78.199 -2.6,23.668 -3.9,47.711 -3.7,71.61 0.2,17.089 1.2,35.07 6.6,51.14 9.1,26.961 20.2,53.488 33.4,78.922 6.5,12.93 3.8,25.43 5.9,37.93 4.7,25.929 -10.2,46.386 -36.7,45.066 -11.3,-0.437 -23.2,-2.918 -33.4,-7.449 -10.4,-4.68 -21,-11.391 -28.1,-20.02 -13,-16.507 -23.9,-34.781 -35.2,-52.597 -9.5,-15.211 -18.8,-30.551 -27.3,-46.262 -4.7,-8.988 -9.1,-18.93 -10.7,-28.859 -2.2,-13.09 -0.6,-26.75 -2.4,-39.903 -4.9,-37.269 -9.4,-74.386 4.2,-110.918 3.4,-8.691 7.4,-17.25 10.3,-26.16 10.7,-33.18 21.3,-66.5 50,-89.73 0.6,-0.59 1.4,-1.61 1.7,-2.489 8.8,-27.402 34.4,-41.8004 54.3,-56.2613 26,-18.5703 52.1,-40.6289 86.6,-46.6914 z"
         id="path322" /></clipPath><linearGradient
       x1="0"
       y1="0"
       x2="1"
       y2="0"
       gradientUnits="userSpaceOnUse"
       gradientTransform="matrix(1e-7,1181.27,1181.27,-1e-7,10679,-45.76)"
       spreadMethod="pad"
       id="linearGradient330"><stop
         style="stop-opacity:1;stop-color:#1b385a"
         offset="0"
         id="stop326" /><stop
         style="stop-opacity:1;stop-color:#578569"
         offset="1"
         id="stop328" /></linearGradient><clipPath
       clipPathUnits="userSpaceOnUse"
       id="clipPath340"><path
         d="m 1959.41,815.629 c 13.23,-12.707 25.07,-26.891 38.8,-39.02 18.42,-16.507 38.07,-31.64 57.15,-47.339 10.01,-8.34 19.36,-17.411 30.17,-24.559 22.44,-14.973 45.52,-28.652 68.03,-43.191 10.09,-6.418 19.58,-13.739 29.23,-20.961 16.66,-12.571 32.74,-26.02 49.69,-37.789 38.87,-26.961 78.77,-52.532 117.57,-79.711 27.33,-19.289 44.64,-51.008 77.52,-64.231 3.66,-1.457 6.58,-8.988 6.87,-13.957 1.68,-20.312 3.44,-40.922 2.93,-61.23 -1.25,-42.532 -3.66,-84.911 -5.85,-127.442 -0.88,-16.949 -2.92,-34.039 -3.73,-50.929 -1.24,-27.692 -14.83,-55.02 -2.41,-83.071 1.17,-2.64 1.76,-6.437 0.73,-8.918 -7.6,-18.8591 0.59,-35.1521 11.11,-48.5193 12.5,-16 27.91,-30.0312 43.55,-43.1133 5.11,-4.3789 14.98,-5.2578 22.43,-4.3789 12.2,1.4493 24.77,4.5313 36.46,8.9102 33.91,12.8594 48.96,29.8203 41.8,61.6719 -3.21,14.2504 -4.53,29.5194 -4.09,44.1284 0.8,27.399 4.53,54.661 5.26,81.989 1.02,35.59 0.22,71.312 0.29,106.98 0,38.86 6.14,77.672 -2.33,116.621 -3,13.95 -0.59,28.489 14.17,38.282 25.65,17.25 50.71,35.519 75.84,53.628 8.78,6.442 17.1,13.301 25.36,20.469 18.56,15.699 36.25,32.742 55.61,47.34 14.83,11.121 32.59,17.981 47.42,28.789 16.66,12.281 31.86,26.672 47.43,40.492 25.42,22.578 51.22,45.008 76.13,68.239 45.75,42.679 90.9,86.222 136.94,128.613 14.68,13.437 31.56,24.398 47.2,36.816 20.6,16.524 41.43,32.742 61.09,50.364 14.97,13.507 28.64,28.707 41.65,44.187 3.5,4.242 5.33,13.451 3.14,18.421 -7.16,16.22 -15.42,32.3 -25.65,46.77 -4.97,7.01 -14.68,11.32 -22.94,15.49 -26.16,13.01 -50.86,1.75 -75.48,-5.99 -11.33,-3.44 -22.44,-7.53 -27.85,-20.47 -2.34,-5.41 -8.76,-9.27 -13.81,-13.43 -19.21,-15.86 -38.79,-31.22 -57.5,-47.361 -27.92,-24.11 -55.46,-48.508 -82.86,-73.071 -37.12,-33.386 -74.1,-67.007 -111,-100.539 -24.4,-22.07 -48.08,-45.007 -73.29,-66.058 -25.42,-21.121 -52.61,-39.903 -78.48,-60.571 -28.12,-22.582 -55.38,-46.41 -83.22,-69.199 -12.79,-10.371 -25.5,-21.922 -40.26,-28.64 -25.8,-11.621 -44.87,6.418 -63.58,20.16 -19.58,14.539 -37.19,32 -57.13,46.039 -38.15,26.672 -77.46,51.582 -115.89,77.82 -29.89,20.531 -58.83,42.16 -88.49,62.91 -9.28,6.571 -20.24,10.809 -29.23,17.828 -18.85,14.614 -36.9,30.543 -55.24,45.813 -19.87,16.738 -40.41,32.668 -59.7,50.199 -19.87,18.27 -38.07,38.141 -57.06,57.149 -21.05,20.75 -41.51,41.791 -62.92,62.111 -26.02,24.69 -49.73,54.21 -91.81,50.42 -3.84,-0.44 -8.33,0.14 -11.66,-1.32 -14.06,-6.14 -28.5,-12.13 -41.76,-19.81 -4.27,-2.56 -7.38,-10.3 -7.92,-15.99 -2.09,-22.87 7.63,-41.8 22.32,-58.458 23.42,-26.75 47.38,-53.203 71.31,-79.571 20.06,-22.152 40.23,-44.222 60.83,-65.992 8.33,-8.617 18.42,-15.5 27.11,-23.82 z"
         id="path338" /></clipPath><linearGradient
       x1="0"
       y1="0"
       x2="1"
       y2="0"
       gradientUnits="userSpaceOnUse"
       gradientTransform="matrix(1e-7,1181.26,1181.26,-1e-7,2495.54,-45.8)"
       spreadMethod="pad"
       id="linearGradient346"><stop
         style="stop-opacity:1;stop-color:#1b385a"
         offset="0"
         id="stop342" /><stop
         style="stop-opacity:1;stop-color:#578569"
         offset="1"
         id="stop344" /></linearGradient><clipPath
       clipPathUnits="userSpaceOnUse"
       id="clipPath356"><path
         d="m 8414.29,60.3789 c 0.95,3.8008 5.04,7.4492 8.55,9.9297 21.33,15.9297 28.58,36.4024 22.21,62.1134 -1.75,7.16 -1.6,14.976 -1.31,22.43 1.17,52.617 2.99,105.296 4.16,157.769 1.17,54.508 1.68,108.867 3,163.231 0.29,13.589 2.78,27.039 2.92,40.488 0.37,33.68 -1.24,67.219 0.08,100.762 1.46,35.289 5.77,70.507 8.03,105.726 1.91,28.863 1.68,57.871 3.95,86.66 2.41,30.473 6.73,60.793 9.93,91.192 0.29,2.492 -0.22,4.968 -0.59,7.449 -2.69,14.621 -4.01,28.871 10.61,38.23 -4.17,7.45 -7.68,12.782 -10.45,18.34 -4.9,10.223 -8.77,20.903 -14.18,30.531 -4.61,8.33 -11.76,15.06 -16.58,23.31 -10.68,18.05 -30.84,24.34 -46.48,21.78 -22.87,-3.65 -46.84,-7.09 -67.51,-24.55 -26.97,-22.95 -28.5,-50.782 -27.77,-80.739 0.29,-14.472 3.28,-28.722 3.36,-43.121 0,-22.058 -1.53,-43.98 -2.34,-65.898 -1.02,-33.032 -1.46,-66.063 -2.78,-98.942 -2.05,-44.058 -4.82,-87.98 -7.16,-132.039 -2.04,-44.941 -4.23,-89.941 -6.14,-134.961 -0.72,-13.89 -1.6,-27.988 -0.72,-41.949 1.75,-27.973 7.01,-55.961 6.57,-83.801 -1.09,-63.648 -2.33,-127.66 -8.7,-191.011 -2.56,-26.668 7.76,-46.6176 20.31,-64.1606 20.03,-28.1171 52.77,-35.7187 86.38,-34.3398 9.05,0.3711 19.66,2.9922 22.65,15.5703 z"
         id="path354" /></clipPath><linearGradient
       x1="0"
       y1="0"
       x2="1"
       y2="0"
       gradientUnits="userSpaceOnUse"
       gradientTransform="matrix(1e-7,1181.31,1181.31,-1e-7,8385.19,-45.8302)"
       spreadMethod="pad"
       id="linearGradient362"><stop
         style="stop-opacity:1;stop-color:#1b385a"
         offset="0"
         id="stop358" /><stop
         style="stop-opacity:1;stop-color:#578569"
         offset="1"
         id="stop360" /></linearGradient><clipPath
       clipPathUnits="userSpaceOnUse"
       id="clipPath372"><path
         d="m 8306.14,1207.87 c 8.93,-8.11 13.52,-15.49 11.41,-24.19 5.77,-3.07 10.08,-5.04 13.95,-7.23 14.25,-7.67 27.55,-19.29 42.6,-22.36 19.81,-3.8 39.89,2.05 58.68,12.13 36.18,19.51 44.2,45.23 43.19,82.42 -0.45,17.54 -13.38,24.99 -23.83,33.55 -14.61,11.9 -29.81,24.69 -46.98,31.2 -23.9,9.2 -74.24,-14.77 -88.05,-37.85 -4.02,-6.73 -7.68,-14.33 -13.74,-19.3 -7.16,-6.28 -16.58,-9.93 -9.43,-22.43 4.6,-8.33 5.63,-20.02 12.2,-25.94 z"
         id="path370" /></clipPath><linearGradient
       x1="0"
       y1="0"
       x2="1"
       y2="0"
       gradientUnits="userSpaceOnUse"
       gradientTransform="matrix(1e-7,1181.33,1181.33,-1e-7,8383.72,-45.8601)"
       spreadMethod="pad"
       id="linearGradient378"><stop
         style="stop-opacity:1;stop-color:#1b385a"
         offset="0"
         id="stop374" /><stop
         style="stop-opacity:1;stop-color:#578569"
         offset="1"
         id="stop376" /></linearGradient></defs><g
     id="g10"
     transform="matrix(1.3333333,0,0,-1.3333333,0,475.41333)"><g
       id="g12"
       transform="scale(0.1)"><g
         id="g14"><g
           id="g16"
           clip-path="url(#clipPath20)"><path
             d="M 224.219,2707.6 H 0 v 308.36 h 224.219 c -1.793,208.43 39.418,353.11 123.707,433.96 81.508,78.88 219.32,117.46 413.465,115.67 74.418,-1.86 148.922,-4.67 223.339,-8.26 v -338.68 c -43.621,5.52 -85.531,8.23 -125.531,8.23 -53.492,0 -95.801,-7.39 -126.965,-22.15 -30.32,-16.47 -45.449,-57.76 -45.449,-123.96 v -64.81 H 966.063 V 2707.6 H 686.785 V 1551.74 H 224.219 V 2707.6"
             style="fill:url(#linearGradient26);fill-opacity:1;fill-rule:nonzero;stroke:none"
             id="path28" /></g></g><g
         id="g30"><g
           id="g32"
           clip-path="url(#clipPath36)"><path
             d="m 1089.84,3015.96 h 450.4 v -257.58 h 5.34 c 76.32,188.19 218.08,283.26 425.16,285.16 36.39,0 72.78,-3.65 109.17,-11.07 v -435.06 c -57.87,18.3 -117.13,27.51 -177.56,27.51 -114.9,-1.83 -201.28,-35.88 -259.18,-102.04 -60.54,-67.23 -90.79,-149.03 -90.79,-245.52 v -725.62 h -462.54 v 1464.22"
             style="fill:url(#linearGradient42);fill-opacity:1;fill-rule:nonzero;stroke:none"
             id="path44" /></g></g><g
         id="g46"><g
           id="g48"
           clip-path="url(#clipPath52)"><path
             d="m 2581.83,2281.79 c 0,-45.24 5.48,-91.27 16.14,-138.22 7.17,-48.96 21.78,-93.13 44.14,-132.8 21.41,-39.57 51.29,-71.87 89.73,-96.75 36.61,-25.83 80.82,-38.76 132.7,-38.76 54.36,0 100.76,12.93 139.12,38.76 34.78,24.88 63.42,57.18 85.78,96.75 21.34,39.6 37.41,83.84 48.16,132.8 8.03,46.95 12.05,92.98 12.05,138.22 0,100.47 -20.09,193.12 -60.21,277.88 -42.89,86.66 -117.86,130.87 -224.9,132.77 -106.32,-1.9 -180.41,-46.11 -222.43,-132.77 -41.94,-84.76 -62.11,-177.41 -60.28,-277.88 z m -462.47,0 c 1.76,225.89 71.47,411.3 209.28,556.5 135.03,145.04 313.62,218.51 535.9,220.41 225.63,-1.9 405.53,-75.37 539.77,-220.41 136.86,-145.2 206.2,-330.61 207.88,-556.5 -1.68,-223.16 -71.02,-406.35 -207.88,-549.56 -134.24,-145.2 -314.14,-219.44 -539.77,-223.16 -222.28,3.72 -400.87,77.96 -535.9,223.16 -137.81,143.21 -207.52,326.4 -209.28,549.56"
             style="fill:url(#linearGradient58);fill-opacity:1;fill-rule:nonzero;stroke:none"
             id="path60" /></g></g><g
         id="g62"><g
           id="g64"
           clip-path="url(#clipPath68)"><path
             d="m 3720.99,3015.96 h 451.06 v -201.09 h 5.26 c 45.38,77.16 108.95,137.7 190.79,181.83 81.77,41.36 166.82,62 254.79,62 120.13,0 214.39,-18.89 282.93,-56.55 67.67,-37.63 117.87,-86.7 150.75,-147.32 34.85,-57.9 56.48,-118.95 65.4,-183.22 7.01,-66.09 10.67,-126.26 10.67,-180.41 V 1551.74 H 4670.1 v 708.96 c 0,50.6 0.88,100.62 2.78,150.42 -1.9,48.77 -9.06,91.96 -21.63,129.62 -12.5,37.71 -34.49,67.56 -65.84,89.66 -34.93,22.98 -84.69,34.49 -149.21,34.49 -87.83,-1.9 -151.91,-33.13 -192.17,-93.82 -40.34,-61.68 -60.43,-134.74 -60.43,-219.36 v -799.97 h -462.61 v 1464.22"
             style="fill:url(#linearGradient74);fill-opacity:1;fill-rule:nonzero;stroke:none"
             id="path76" /></g></g><g
         id="g78"><g
           id="g80"
           clip-path="url(#clipPath84)"><path
             d="m 6228.33,2707.6 h -287.1 v -668.12 c 0,-54.32 15.05,-91.04 45.16,-110.44 31.2,-20.21 71.82,-30.29 121.72,-30.29 38.23,0 78.27,1.83 120.22,5.52 v -352.53 c -83.46,-7.31 -168.21,-11.84 -254.51,-13.74 -192.46,0 -323.41,36.76 -392.82,110.34 -71.03,77.24 -105.3,212.81 -102.52,406.89 v 652.37 h -234.93 v 308.36 h 234.93 v 442.22 h 462.75 v -442.22 h 287.1 V 2707.6"
             style="fill:url(#linearGradient90);fill-opacity:1;fill-rule:nonzero;stroke:none"
             id="path92" /></g></g><g
         id="g94"><g
           id="g96"
           clip-path="url(#clipPath100)"><path
             d="m 6352.76,3015.96 h 462.46 V 1551.74 h -462.46 z m 462.46,183.4 h -462.46 v 366.23 h 462.46 v -366.23"
             style="fill:url(#linearGradient106);fill-opacity:1;fill-rule:nonzero;stroke:none"
             id="path108" /></g></g><g
         id="g110"><g
           id="g112"
           clip-path="url(#clipPath116)"><path
             d="m 7975.65,2434.72 c -3.65,84.51 -30.47,155.31 -80.44,212.16 -50.94,56.12 -116.56,85.01 -196.94,86.92 -82.2,0 -149.2,-26.27 -201.01,-78.62 -52.61,-55.06 -86.29,-128.61 -100.55,-220.46 z m -578.94,-267.25 c 5.41,-99.6 35.22,-179.98 89.8,-240.81 53.57,-61.85 129.56,-92.72 227.77,-92.72 58.97,0 112.02,14.32 159.36,42.92 47.42,25.87 83.09,65.51 107.27,119 h 431.92 c -45.23,-168.28 -132.33,-291.85 -261.23,-371.05 -133.27,-77.16 -280.88,-115.74 -442.72,-115.74 -232.95,1.9 -419.65,70.59 -560.09,206.6 -141.32,134.96 -212.78,325.53 -214.54,571.63 1.76,229.52 77.24,415.11 226.6,556.54 144.96,141.36 324.06,212.96 537.42,214.86 254.94,-4.68 445.29,-91.3 570.47,-259.94 123.93,-166.94 180.41,-377.34 169.37,-631.29 h -1041.4"
             style="fill:url(#linearGradient122);fill-opacity:1;fill-rule:nonzero;stroke:none"
             id="path124" /></g></g><g
         id="g126"><g
           id="g128"
           clip-path="url(#clipPath132)"><path
             d="m 8555.39,3015.96 h 450.4 v -257.58 h 5.2 c 76.34,188.19 218.1,283.26 425.19,285.16 36.39,0 72.7,-3.65 109.32,-11.07 v -435.06 c -57.87,18.3 -117.21,27.51 -177.8,27.51 -114.7,-1.83 -201.08,-35.88 -259.02,-102.04 -60.51,-67.23 -90.83,-149.03 -90.83,-245.52 v -725.62 h -462.46 v 1464.22"
             style="fill:url(#linearGradient138);fill-opacity:1;fill-rule:nonzero;stroke:none"
             id="path140" /></g></g><g
         id="g142"><g
           id="g144"
           clip-path="url(#clipPath148)"><path
             d="m 10072,2032.28 c 0,-73.83 26.9,-128.85 80.9,-164.92 51.2,-33.21 112.3,-49.9 183.3,-49.9 53,0 104.6,12.06 154.9,35.95 50.2,22.95 76.3,62.51 78.2,118.66 -1.9,55.24 -29.8,92.92 -84.3,113.3 -53.2,21.12 -103.2,35.33 -150,42.74 -75.4,18.46 -151.7,37.31 -228.8,56.56 -79,14.87 -152.98,37.27 -221.82,67.74 -66.26,30.32 -119.82,72.78 -161.25,126.99 -44.94,54.19 -67.59,130.69 -67.59,229.23 0,90.17 22.43,164.77 66.85,223.66 40.85,56.12 94.12,101.25 159.45,135.37 66.28,33.94 137.56,57.43 213.96,70.4 76.2,13.74 149.7,20.64 220.5,20.64 81.8,0 161.8,-6.9 239.9,-20.64 76.1,-12.86 146.1,-37.26 209.8,-73.07 62.6,-33.91 113.5,-81.69 152.6,-143.15 39.1,-62.4 60.7,-141.42 65.4,-236.81 h -444.5 c 0,60.57 -20.7,103.61 -62.1,128.74 -41.5,24.34 -92.5,36.58 -153.3,36.58 -43.2,0 -86.4,-4.68 -129.7,-13.82 -48.8,-14.83 -74.1,-47.05 -76,-96.74 0,-31.27 19.3,-58.38 57.8,-81.44 35,-23.05 80.1,-40.99 135.6,-53.85 119.4,-28.53 239.6,-53.89 361.1,-75.92 74.2,-15.67 134.2,-37.26 179.4,-64.92 45.2,-32.19 81.5,-68.1 109,-107.67 48.8,-81.03 72.3,-155.57 70.4,-223.71 -5.4,-192.31 -79.3,-328.11 -221.5,-407.33 -141.5,-77.3 -298.8,-115.88 -471.9,-115.88 -175.9,-1.9 -333.6,35.66 -473.19,112.52 -140.45,75.12 -218.49,212.02 -233.99,410.69 H 10072"
             style="fill:url(#linearGradient154);fill-opacity:1;fill-rule:nonzero;stroke:none"
             id="path156" /></g></g><g
         id="g158"><g
           id="g160"
           clip-path="url(#clipPath164)"><path
             d="m 1361.7,668.25 c -10.49,-5.34 -18.7,-15.711 -29.34,-19.66 -19.58,-7.149 -40.07,-13.949 -60.72,-16.219 -36.53,-4.383 -73.51,-5.043 -110.3,-7.461 -10.71,-0.719 -20.06,-1.68 -19.88,14.031 0.15,28.348 -1.6,56.707 -0.9,85.059 0.4,19.289 2.95,38.578 5.58,57.73 2.78,19.872 6.47,22.348 27.18,21.192 34.24,-0.594 68.4,-1.32 102.63,-1.613 37.01,-0.438 73.62,-2.039 109.02,-14.399 22.98,-7.961 30.95,-19.801 27.11,-44.058 -5.15,-32.731 -19.58,-58.903 -50.38,-74.602 z m 143.88,-249.102 c -35.26,42.684 -69.42,86.372 -104.02,129.633 -2.01,2.559 -2.85,6.059 -4.09,8.481 5,3.347 8.84,6.058 12.78,8.468 11.69,7.52 22.55,17.379 35.34,21.551 11.94,4.028 19.07,12.789 26.81,20.098 6.98,6.723 9.06,18.121 14.4,26.82 10.3,16.731 21.7,32.801 31.74,49.61 3.33,5.773 4.79,13.152 5.56,19.8 1.43,13.161 1.49,26.379 2.78,39.532 0.47,4.898 4.82,10.449 3.54,14.55 -5.52,18.188 -11.66,36.379 -19,54 -6.5,16.071 -14.25,32.071 -29.41,42.231 -17.21,11.539 -32.26,26.449 -54.26,30.457 -19.07,3.59 -37.26,10.609 -56.11,15.422 -9.32,2.488 -19.22,4.32 -29.01,5.187 -8.19,0.883 -16.52,-0.797 -24.66,0.293 -17.32,2.27 -34.42,7.528 -51.77,8.117 -19.4,0.731 -39.1,-3.359 -58.64,-3.289 -32.59,0.082 -65.26,1.68 -97.84,3 -16.48,0.582 -33.07,1.903 -49.62,2.493 -2.84,0 -5.8,-1.762 -8.58,-2.93 -7.53,-3.293 -15.1,-6.363 -22.33,-10.231 -3.51,-1.902 -6.87,-4.679 -9.09,-7.742 -10.16,-14.621 -4.17,-30.34 -3.62,-46.039 1.39,-40.488 0.73,-81.031 0.98,-121.519 0.04,-7.371 1.17,-14.692 1.36,-21.993 0.73,-24.117 1.38,-48.078 1.97,-72.187 0.84,-37.852 1.79,-75.699 2.56,-113.481 0.4,-18.789 -0.26,-37.628 0.77,-56.351 1.56,-27.609 5.19,-55.078 6.28,-82.777 0.77,-23.024 0.29,-45.813 14.47,-65.762 4.31,-6 8.18,-12.57 10.81,-19.512 6.43,-16.519 33.62,-27.547 49.73,-20.457 11.72,5.18 15.67,16.949 23.78,24.258 16.19,14.762 18.12,31.851 17.06,51.152 -2.04,40.77 -3.83,81.617 -5.41,122.539 -0.54,15.629 -0.03,31.352 -0.03,47.2 8.98,0.511 15.53,0.66 21.99,1.39 15.09,1.75 30.18,4.449 45.45,5.551 20.35,1.461 40.81,1.758 61.23,2.199 3.69,0 8.41,-0.879 10.93,-3.301 16.62,-15.847 34.01,-31.257 48.63,-48.879 18.34,-21.921 25.97,-51.289 47.17,-71.601 1.2,-1.109 0.95,-3.438 1.86,-4.91 8.81,-14.981 16.73,-30.539 26.89,-44.489 8.88,-12.281 20.46,-22.949 31.86,-35.148 -3.91,-2.051 -6.58,-3.434 -9.17,-4.75 2.52,0.879 5.15,1.609 7.78,2.477 8.66,-11.688 15.82,-25.137 26.63,-34.34 8.48,-7.379 22.73,-15.047 32.01,-12.86 16.62,4.09 31.46,15.422 46.76,23.969 2.05,1.172 3.25,4.012 4.72,6.211 4.93,7.531 9.79,14.832 14.5,22.359 2.16,3.582 5.44,7.383 5.66,11.18 0.81,15.203 -4.97,27.774 -16.04,38.512 -15.27,14.832 -30.69,29.441 -44.09,45.808"
             style="fill:url(#linearGradient170);fill-opacity:1;fill-rule:nonzero;stroke:none"
             id="path172" /></g></g><g
         id="g174"><g
           id="g176"
           clip-path="url(#clipPath180)"><path
             d="m 553.945,689.289 c 10.782,34.859 27.801,69.57 56.59,94.481 13.778,11.769 29.336,22.218 48.488,25.718 11.438,2.203 22.832,6.442 33.387,11.403 9.211,4.238 15.895,3.507 22.141,-4.532 5.922,-7.519 11.074,-16.218 18.597,-21.769 7.379,-5.559 17.028,-8.77 26.157,-11.551 8.883,-2.48 17.066,-4.668 19.004,-15.488 0.293,-2.039 1.679,-4.391 3.402,-5.551 27.98,-20.539 29.441,-53.789 39.156,-82.789 3.254,-9.359 2.379,-20.02 3.438,-30.031 -0.657,-0.149 -1.352,-0.149 -1.938,-0.149 0,-29.371 1.133,-58.75 -0.472,-87.98 -0.625,-11.91 -7.418,-23.379 -10.817,-35.219 -5.918,-20.613 -11.402,-41.363 -17.027,-62.113 -0.106,-0.289 -0.211,-0.719 -0.504,-1.16 -20.793,-28.868 -41.031,-58.02 -76.067,-72.637 -33.984,-14.172 -66.32,-4.973 -99.015,3.207 -3.504,0.812 -6.902,2.93 -10.156,2.641 -11.473,-0.961 -19.43,5.261 -23.496,14.171 -11.141,24.7 -24.512,49.25 -30.282,75.411 -7.527,34.128 -11.621,69.636 -11.875,104.718 -0.293,33.239 1.532,67.871 11.289,99.219 z M 466.34,417.621 c 6.824,-20.762 21.625,-38.512 23.418,-61.312 0.031,-1.528 1.57,-3 2.625,-4.309 5.808,-7.23 11.508,-14.539 17.539,-21.48 3.945,-4.461 7.746,-10.45 12.859,-12.129 27.512,-9.282 55.274,-17.762 83.157,-25.942 32.878,-9.648 66.089,-14.39 87.132,-11.539 42.164,1.969 69.86,7.371 94.227,24.692 12.125,8.757 25.207,16.359 37.336,25.289 10.375,7.66 16.113,19.14 23.312,29.66 13.149,19.148 31.672,34.34 46.907,52.168 5.996,6.871 10.671,15.64 13.046,24.332 6.028,21.121 9.973,42.738 15.344,64.078 5.738,22.812 13.887,45.172 18.012,68.109 3.289,18.922 2.519,38.5 2.992,57.871 0.442,14.032 2.633,28.789 -0.613,41.942 -7.863,31.711 -16.371,63.347 -28.574,93.527 -16.844,42.231 -38.766,81.844 -85.02,100.184 -3.867,1.457 -8.254,9.789 -7.41,13.957 2.992,13.953 -4.281,20.461 -15.055,25.281 -6.617,2.988 -14.578,4.02 -20.719,7.75 -33.5,20.078 -68.722,13.582 -102.48,4.09 -21.152,-6 -42.418,-12.719 -63.422,-19.442 -30.543,-9.57 -59.957,-23.089 -82.242,-47.707 -8.039,-8.851 -15.566,-19.07 -25.324,-25.429 -19.797,-12.942 -31.344,-31.203 -40.371,-51.953 -8.911,-20.457 -18.34,-40.629 -26.411,-61.387 -3.949,-9.863 -5.957,-20.613 -7.71,-31.192 -1.571,-9 0.074,-18.57 -2.157,-27.398 -6.718,-27.41 -11.648,-54.082 -2.3,-82.434 5.992,-17.828 9.867,-37.546 8.917,-56.046 -1.863,-33.981 13.04,-62.911 22.985,-93.231"
             style="fill:url(#linearGradient186);fill-opacity:1;fill-rule:nonzero;stroke:none"
             id="path188" /></g></g><g
         id="g190"><g
           id="g192"
           clip-path="url(#clipPath196)"><path
             d="m 65.6523,260.148 c 9.7188,-2.988 17.1016,-4.668 25.2852,1.461 7.3438,5.332 18.6715,9.063 21.5195,16.153 6.535,15.57 15.305,30.687 15.305,48.668 0,46.25 1.32,92.511 1.386,138.761 0.079,30.321 -0.906,60.641 -2.039,91.039 -0.257,7.68 1.746,12.282 9.571,12.418 14.394,0.293 28.715,0.954 42.965,-0.437 32.332,-2.992 64.847,-2.699 96.742,-12.133 11.511,-3.5 27.769,-0.137 38.875,5.781 16.035,8.621 27.953,23.161 34.636,41.582 5.372,15.047 2.52,33.457 -10.523,42.957 -7.012,4.973 -17.461,6.582 -22.617,13 -7.344,8.774 -14.836,9.282 -24.406,7.313 -5.477,-1.102 -10.922,-2.34 -16.368,-2.481 -23.379,-0.878 -46.914,-1.32 -70.254,-1.761 -21.082,-0.36 -42.054,-0.867 -63.058,-0.43 -3.914,0.141 -10.27,3.949 -11,7.012 -1.75,9.058 -1.496,18.488 -1.606,27.769 -0.257,18.711 -0.695,37.551 0,56.27 0.696,21.762 2.231,43.691 4.676,65.32 0.473,3.649 7.121,9.211 10.961,9.352 41.465,1.457 82.86,0.726 124.258,3.429 29.41,1.911 58.562,-1.39 87.793,-0.8 13.187,0.289 27.437,-0.153 37.48,11.25 5.704,6.578 10.414,14.031 16.625,20.097 10.961,10.742 10.817,24.481 10.485,37.922 -0.071,6.578 -23.926,20.309 -31.961,21.918 -5.485,1.031 -10.598,4.684 -15.641,7.242 -0.074,0.879 -0.113,1.75 -0.148,2.7 -12.164,-0.809 -24.438,-2.188 -36.684,-2.188 -23.047,0 -46.176,2.77 -69.121,0.867 -49.762,-3.937 -99.414,-10.949 -149.609,-7.738 -3.071,0.148 -6.145,-0.883 -9.172,-1.32 C 94.2227,918.73 78.5508,914.57 62.7344,914.422 40.5156,913.98 23.3477,902.949 18.4141,881.539 17.1367,876.129 18.5938,868.969 15.5273,865.031 -0.0742188,844.488 4.67578,819.648 4.08984,797.512 3.14453,763.461 11.3281,729.34 13.1875,695.07 13.9219,681.328 7.78125,667.148 5.11719,653.191 c -0.80469,-4.089 -1.02735,-8.402 -0.625,-12.57 0.73047,-5.98 2.89062,-11.832 3.14453,-17.75 1.24219,-31.281 1.82812,-62.402 2.99608,-93.68 0.1836,-7.441 2.082,-14.902 2.2266,-22.351 0.7344,-26.75 1.4961,-53.488 1.3867,-80.238 0,-25.872 0.293,-51.872 -2.043,-77.743 -3.21482,-37.187 11.7266,-76.429 53.4492,-88.711"
             style="fill:url(#linearGradient202);fill-opacity:1;fill-rule:nonzero;stroke:none"
             id="path204" /></g></g><g
         id="g206"><g
           id="g208"
           clip-path="url(#clipPath212)"><path
             d="m 7155.87,67.3906 c 12.71,10.3711 25.72,20.6094 38.22,31.418 3.87,3.3714 6.58,8.4724 8.56,13.3004 6.64,15.782 -0.75,29.52 -4.54,45.012 -11.25,46.18 -13.67,93.68 -12.87,141.25 0.52,28.418 0.81,56.91 -0.13,85.418 -1.61,42.371 -4.97,84.832 -6.65,127.281 -1.69,40.852 -1.69,81.692 -2.79,122.539 -0.94,32.512 -3.57,64.961 -3.86,97.411 -0.15,26.519 0.72,53.039 3.21,79.5 1.02,13.152 5.56,13.429 16,4.742 23.31,-19.364 41.29,-43.543 64.97,-62.981 37.55,-30.621 69.26,-68.031 103.09,-102.89 8.48,-8.77 15.71,-18.782 23.98,-27.84 10.29,-11.25 21.03,-22.199 31.85,-32.879 10.59,-10.371 21.55,-20.531 32.74,-30.242 9.49,-8.051 16.36,-17.621 20.75,-29.379 1.32,-3.512 6.06,-5.992 9.79,-8.262 6.58,-4.019 13.81,-7.16 20.16,-11.328 6.8,-4.371 12.28,-12.629 19.3,-14.02 29.16,-5.851 56.92,-19.589 88.41,0.649 22.66,14.539 40.12,33.101 57.95,51.371 16.44,16.508 28.05,37.641 42.82,55.898 38.35,47.422 77.23,94.563 115.88,141.692 18.05,21.988 36.39,43.98 54.88,65.828 10.23,12.211 20.97,24.043 31.27,36.019 1.46,-0.289 2.78,-0.726 4.1,-1.019 -1.03,-21.34 -1.76,-42.668 -3.07,-64.008 -0.74,-11.473 1.1,-24.621 -3.87,-34.051 -8.48,-16.07 -4.24,-31.558 -4.02,-47.351 0.51,-37.27 1.75,-74.528 2.7,-111.867 0.29,-7.461 0.29,-14.981 1.54,-22.282 1.89,-11.261 5.84,-22.148 7.15,-33.468 2.2,-18.711 2.56,-37.704 4.24,-56.563 3.51,-39.309 7.82,-78.48 10.89,-117.777 3.15,-41.364 4.9,-82.723 7.96,-124.223 2.12,-28.211 4.76,-56.129 -1.31,-84.398 -1.82,-7.821 1.02,-19.801 6.36,-25.211 18.56,-18.559 39.16,-35.0003 55.61,-49.3987 18.85,-1.3204 34.63,-2.3399 48.51,-3.293 9.57,5.1914 18.56,10.8906 27.91,15.2109 20.46,9.3399 35.59,39.0898 30.84,61.3008 -2.34,11.391 -6.07,23.238 -5.11,34.629 1.6,19.73 2.34,38.59 -4.83,57.293 -3.28,8.328 -5.04,17.387 -6.06,26.308 -2.04,19.801 -3.36,39.598 -4.53,59.469 -2.41,40.492 -4.47,80.973 -7.02,121.449 -1.24,21.481 1.54,44.723 -6.06,63.793 -9.94,25.207 2.34,50.489 -7.82,75.34 -5.26,12.86 0.22,29.809 -0.15,45.008 -0.8,32 -4.96,64 0.44,95.871 1.53,8.91 3,17.899 3.15,26.879 0.8,39.902 1.53,79.731 1.97,119.621 0.14,14.539 -1.03,29.012 -0.88,43.481 0.15,6.14 3.51,12.347 3,18.339 -1.68,18.629 -3.44,37.489 -6.95,55.891 -3.72,18.999 7.38,37.559 -5.69,58.019 -15.79,24.34 -46.55,44.36 -76.07,38.59 -12.86,-2.49 -25.57,-4.83 -38.44,-7.24 -34.92,-6.36 -65.83,-20.1 -88.13,-48.74 -17.23,-22.35 -33.24,-45.602 -50.41,-68.168 -10.52,-13.891 -22.65,-26.531 -33.02,-40.711 -20.1,-27.609 -38.59,-56.762 -59.49,-83.871 -27.33,-35.23 -56.41,-68.98 -84.83,-103.32 -17.75,-21.571 -36.76,-42.391 -53.71,-64.598 -15.41,-20.32 -15.85,-21.121 -34.92,-4.75 -0.8,0.727 -1.17,1.758 -2.12,2.188 -22.22,14.101 -29.31,41.871 -54.15,55.312 -20.16,10.969 -35.51,31.566 -51.73,48.816 -26.52,28.493 -51.3,58.672 -78.62,86.301 -20.1,20.379 -44.14,36.742 -64.89,56.473 -27.4,26.019 -53.71,53.488 -80.23,80.297 -14.18,14.261 -31.35,26.531 -41.5,43.271 -21.57,35.14 -57,38.94 -91.34,46.62 -1.75,0.36 -4.09,-2.42 -6.15,-3.73 -17.24,-10.75 -34.56,-21.41 -53.47,-33.18 -0.29,-4.81 1.31,-13.01 -1.4,-19.36 -3.43,-8.32 -3.8,-13.44 3.37,-19.8 2.4,-2.26 2.91,-10.38 0.87,-13.438 -11.25,-15.793 -17.02,-31.571 -13.52,-51.961 4.31,-24.922 4.02,-50.493 5.99,-75.852 0.88,-10.449 3.52,-20.82 3.58,-31.199 0.44,-41.059 -0.87,-81.981 0.44,-122.899 1.54,-49.39 7.82,-98.64 7.09,-147.902 -0.8,-45.008 3.29,-89.648 4.83,-134.437 1.6,-39.321 3.65,-78.633 5.04,-117.942 0.8,-18.41 -0.22,-36.832 0.95,-55.238 2.11,-35.953 4.89,-71.902 8.03,-107.852 0.73,-7.461 3.36,-15.058 6.51,-21.851 12.71,-26.379 36.17,-42.1604 59.33,-58.1682 12.13,-8.4024 42.38,-10.582 50.12,-4.1602"
             style="fill:url(#linearGradient218);fill-opacity:1;fill-rule:nonzero;stroke:none"
             id="path220" /></g></g><g
         id="g222"><g
           id="g224"
           clip-path="url(#clipPath228)"><path
             d="m 8767.08,133.449 c 0.29,32.442 -0.08,64.731 -0.45,97.18 -0.36,39.601 -2.56,79.281 -1.23,118.812 1.75,53.641 6.28,107.27 9.57,160.829 0.36,5.992 0.8,12.05 0.66,18.05 -0.52,21.039 -2.27,42.09 -1.75,63.129 1.3,48.879 3.49,97.77 5.76,146.582 0.37,7.02 3.29,13.739 5.26,20.598 4.46,-4.52 9.13,-8.758 13.16,-13.738 19.43,-24.551 38.65,-49.243 58.01,-73.789 8.48,-10.961 17.4,-21.481 26.09,-32.301 20.82,-26.313 41.65,-52.762 62.18,-79.211 9.72,-12.488 18.77,-25.578 28.65,-38 18.56,-23.82 38.13,-46.762 56.12,-71.008 12.13,-16.371 21.41,-34.871 33.1,-51.531 20.53,-28.86 42.01,-56.91 62.68,-85.563 8.19,-11.109 15.5,-23.008 23.46,-34.34 17.91,-25.347 36.03,-50.418 53.86,-75.777 8.83,-12.851 14.54,-29.59 26.3,-38.5 24.49,-18.269 41.28,-50.269 78.41,-48.082 1.68,0.141 3.58,-1.758 5.47,-2.641 26.16,-13.578 52.91,-9.636 73.6,10.672 3.2,3.219 6.49,6.442 10.15,8.918 13.81,9.133 23.16,45.891 16.14,60.434 -2.92,5.769 -5.11,12.637 -5.4,18.988 -0.58,16.52 -0.07,33.031 0.14,49.539 0.29,27.992 1.03,56.129 1.32,84.18 0.29,44.281 0.73,88.641 0.73,132.91 0,16.961 -1.09,33.84 -1.32,50.859 -0.58,39.911 -0.44,79.954 -1.38,120.063 -0.66,22.371 -4.31,44.648 -3.88,66.859 0.37,36.461 3.58,72.782 4.68,109.239 0.58,23.382 -1.75,46.992 -0.66,70.371 0.66,12.199 8.99,24.261 8.55,36.242 -0.44,17.387 -3.95,35.078 -9.21,51.797 -5.99,19.521 -10.74,39.241 -33.46,50.061 -17.91,8.62 -35.08,17.09 -54.95,16.66 -20.1,-0.44 -38.37,-4.38 -51.38,-23.68 -13.14,-19.66 -40.1,-31.709 -31.19,-62.401 0.51,-1.527 -0.58,-4.089 -1.83,-5.48 -6.79,-7.52 -7.82,-14.18 0,-22.07 2.71,-2.77 3.07,-8.399 3.51,-12.778 1.47,-13.449 2.63,-26.89 3.44,-40.48 1.89,-29.821 4.67,-59.551 5.11,-89.371 0.22,-36.02 -1.68,-71.969 -2.71,-107.918 -0.21,-4.821 -1.6,-9.793 -1.38,-14.621 2.12,-32.95 5.03,-65.903 6.5,-98.86 0.66,-14.91 -2.7,-30.031 -2.34,-45.011 0.66,-29.961 3.22,-59.848 3.66,-89.809 0.28,-14.461 -1.98,-28.93 -3.22,-43.473 -1.31,-0.218 -2.63,-0.59 -4.1,-0.879 -9.49,11.262 -20.23,21.852 -28.85,33.832 -21.85,31.27 -43.12,62.981 -64.15,94.848 -9.65,14.543 -17.84,29.961 -27.11,44.859 -6.37,10.454 -12.8,21.262 -20.61,30.704 -14.84,17.957 -31.43,34.488 -46.19,52.597 -10.67,13.231 -19.43,27.621 -31.27,40.192 -20.1,21.41 -38.21,44.57 -56.62,67.371 -14.11,17.386 -27.11,35.359 -41,52.898 -16.95,21.93 -35,43.121 -51.23,65.629 -20.38,28.051 -39.16,57.281 -58.96,85.781 -6.21,9.059 -12.85,17.75 -19.36,26.668 -13.82,19.292 -27.33,38.652 -41.37,57.802 -1.46,2.27 -4.23,4.67 -6.79,5.11 -16.58,3.44 -33.83,4.82 -49.91,9.5 -22.79,6.87 -37.7,-6.06 -53.33,-18.12 -8.4,-6.43 -16.23,-13.67 -25.14,-19.29 -11.04,-7.01 -20.02,-22.36 -16.95,-34.49 6.42,-25.289 13.51,-50.199 12.42,-76.719 -0.44,-9.801 5.48,-19.949 4.09,-29.453 -6.14,-44.937 -4.24,-89.797 -1.91,-134.957 1.39,-27.851 0.08,-55.832 -1.01,-83.75 -1.09,-27.32 -4.68,-54.652 -5.12,-81.98 -0.37,-33.172 2.78,-66.629 1.9,-99.809 -1.02,-36.902 -6.35,-73.66 -6.72,-110.48 -0.59,-37.563 3,-75.122 4.16,-112.68 0.37,-13.453 -1.53,-27.031 -1.97,-40.481 -0.73,-24.402 0.29,-48.953 -2.19,-73.062 -1.31,-12 -1.76,-21.57 8.03,-29.668 2.34,-1.762 4.47,-4.172 5.85,-6.731 19.36,-35.648 49.03,-47.6402 88.49,-41.5698 31.57,4.8906 58.16,32.5898 58.39,63.7888"
             style="fill:url(#linearGradient234);fill-opacity:1;fill-rule:nonzero;stroke:none"
             id="path236" /></g></g><g
         id="g238"><g
           id="g240"
           clip-path="url(#clipPath244)"><path
             d="m 5127.37,76.8789 c 8.63,16.6602 18.12,32.1601 13.45,53.4221 -3.36,15.058 0.29,31.789 1.17,47.719 0.88,18.851 2.78,37.699 3.22,56.699 0.65,22.953 0.14,45.89 0.43,68.832 0,14.918 -0.15,29.89 0.95,44.719 3.43,40.921 7.97,81.769 10.89,122.761 1.75,24.41 1.02,49.028 2.05,73.508 1.6,40.84 3.65,81.691 5.69,122.609 0.52,10.532 1.9,21.043 2.78,31.571 1.61,0.293 3.36,0.59 4.97,0.883 8.62,-13.161 18.26,-25.872 25.87,-39.614 17.24,-31.269 33.02,-63.347 50.34,-94.629 18.85,-33.527 38.95,-66.418 58.24,-99.668 7.23,-12.339 14.03,-25.062 21.99,-37.043 11.77,-17.539 25.14,-34.199 36.68,-51.949 16.3,-24.84 31.57,-50.34 46.99,-75.64 8.98,-14.309 18.85,-28.34 26.16,-43.387 10.3,-20.981 18.7,-42.891 28.05,-64.301 1.18,-2.641 3.3,-5.262 5.42,-7.019 17.31,-13.743 31.92,-28.352 28.42,-53.493 -0.66,-4.238 4.46,-9.648 7.74,-14.019 3.37,-4.32 8.11,-7.531 11.26,-11.918 16.95,-23.3829 34.04,-44.3517 67.52,-45.0822 17.02,-0.4414 31.34,0.8711 44.42,11.8399 4.68,4.082 10.16,7.6016 15.78,10.3711 19,9.9375 26.53,24.6992 24.41,46.1792 -1.68,19.141 -3.36,38.43 -3.29,57.801 0.07,31.34 1.18,62.77 2.63,94.117 0.8,22.282 2.92,44.641 4.82,66.852 1.1,12.57 3.22,24.852 4.23,37.422 4.24,46.18 7.97,92.508 12.44,138.609 4.89,48.891 11.02,97.688 15.04,146.649 1.61,18.859 -0.72,38 -0.14,57 1.75,52.898 4.17,105.718 6.94,158.492 0.88,15.488 -0.15,33.527 7.31,45.656 13.37,21.934 1.09,40.774 -4.16,58.391 -4.98,16.291 -20.61,30.551 -34.42,42.451 -9.35,8.04 -23.75,14.33 -35.81,14.17 -25.35,-0.21 -51.3,-4.01 -66.42,-29.8 -1.31,-2.35 -4.9,-3.44 -6.94,-5.49 -4.46,-4.52 -12.13,-8.99 -12.57,-14.101 -3.29,-34.187 -5.77,-68.461 -7.01,-102.808 -1.09,-38.071 -0.45,-76.059 -0.95,-114.2 -0.44,-27.05 -1.54,-54.16 -2.99,-81.25 -1.76,-36.402 -3.88,-72.793 -6.21,-109.031 -0.59,-7.601 -2.64,-14.91 -3.36,-22.359 -4.98,-49.692 -9.58,-99.379 -14.77,-148.922 -0.29,-2.848 -3.14,-6.141 -5.63,-7.598 -1.17,-0.73 -5.19,1.981 -6.94,4.02 -7.16,9.57 -14.54,19.07 -20.9,29.16 -10.52,16.809 -20.02,34.199 -30.69,50.988 -12.42,19.742 -26.52,38.301 -38.65,58.25 -16.59,27.25 -31.93,55.16 -47.72,82.789 -2.77,4.75 -5.18,9.641 -8.18,14.321 -13.96,22.871 -28.57,45.453 -41.94,68.613 -16.81,28.867 -32.44,58.527 -49.4,87.316 -13.44,22.942 -28.42,44.871 -42.01,67.742 -12.13,20.379 -22.73,41.86 -34.86,62.18 -9.79,16.949 -26.23,30.399 -26.89,52.238 0,2.711 -2.04,5.993 -4.09,7.821 -24.11,21.411 -50.93,36.681 -84.61,35.001 -12.5,-0.51 -52.47,-26.3 -58.9,-36.458 -7.45,-11.84 -15.93,-23.024 -24.33,-34.793 13.23,-5.098 -12.5,-29.367 9.28,-32.137 0,-31.711 0.29,-61.973 -0.07,-92.371 -0.52,-33.75 -1.39,-67.652 -2.34,-101.641 -0.37,-15.55 -2.12,-31.05 -1.97,-46.461 0.29,-27.41 2.92,-54.738 1.89,-82 -1.6,-44.929 -5.11,-89.8 -8.11,-134.66 -3.29,-50.488 -7.16,-100.98 -10.3,-151.398 -1.46,-24.992 -1.75,-49.91 -2.7,-74.821 -0.3,-13.011 -0.95,-26.019 -1.17,-38.949 -0.29,-18.492 0.29,-36.902 -0.44,-55.32 -0.81,-21.77 -0.22,-42.602 17.17,-59.3321 7.01,-6.7305 11.55,-16 18.71,-26.0078 7.3,-4.3906 17.53,-11.5508 28.86,-16.082 9.72,-3.8008 21.99,-8.4688 31.2,-5.7696 18.12,5.4805 36.83,13.3711 46.47,32.3594"
             style="fill:url(#linearGradient250);fill-opacity:1;fill-rule:nonzero;stroke:none"
             id="path252" /></g></g><g
         id="g254"><g
           id="g256"
           clip-path="url(#clipPath260)"><path
             d="m 4235.33,104.359 c 7.67,-2.769 14.76,-7.3004 22.21,-11.2496 20.9,-11.1797 40.63,-25.418 62.84,-32.7305 20.32,-6.6484 43.26,-5.6992 65.04,-8.6172 14.03,-1.9101 28.06,-6.7304 42.16,-6.4414 12.2,0.2891 24.63,4.9688 36.46,9.211 19.73,6.9375 39.31,14.457 58.46,23.0976 20.31,9.2031 42.89,16.793 59.18,31.1211 23.46,20.539 42.39,46.328 62.92,70.07 11.69,13.231 23.02,26.75 36.75,42.899 0,-18.707 3.22,-33.469 -0.66,-45.887 -7.52,-22.871 0.95,-39.902 13.67,-56.422 21.19,-27.2498 49.25,-42.0819 83.81,-42.3006 7.82,-0.0703 16.88,3.1406 23.31,7.7422 8.04,6.0703 12.71,17.3984 21.26,22.2894 16.22,9.347 19.73,24.55 19.08,39.308 -1.76,37.711 -4.24,75.563 -10.09,112.832 -4.38,28.047 -3.65,54.5 4.97,81.321 1.82,5.777 3.66,14.839 0.8,18.488 -9.2,11.691 -5.84,23.738 -4.67,35.949 0.36,3.941 2.12,8.481 0.8,11.832 -10.23,24.777 -3.94,50.719 -5.84,76.07 -1.1,14.387 0.87,28.868 1.46,43.481 0.58,0.219 1.31,0.508 1.82,0.797 -1.02,4.972 -2.7,9.871 -3.28,14.91 -2.78,39.012 -5.49,78.043 -7.83,117.133 -1.09,16.797 -2.04,33.758 -1.24,50.707 0.59,11.84 6.58,23.461 6.29,35.082 -0.51,21.91 -3.58,43.769 -5.92,65.609 -1.61,15.719 -6.28,31.57 -5.04,47.059 2.78,36.75 -1.46,72.41 -11.11,107.562 -4.09,14.758 -11.1,28.93 -14.32,43.839 -6.72,30.25 -49.1,48.16 -74.09,29.59 -23.02,-17.02 -45.38,-35.15 -67.45,-53.491 -5.11,-4.231 -9.86,-10.297 -12.06,-16.508 -5.99,-17.172 -15.7,-34.27 -4.82,-53.27 1.32,-2.269 -1.31,-6.64 -1.68,-10.082 -0.51,-3.879 -1.97,-8.918 -0.29,-11.539 8.4,-13.519 3.43,-27.34 2.41,-41 -0.58,-8.039 -1.17,-16.07 -1.17,-24.039 -0.14,-34.48 0,-68.98 -0.36,-103.472 -0.37,-24.547 -1.54,-49.168 -2.12,-73.797 -0.51,-20.024 0.44,-40.184 -1.61,-60.063 -1.75,-17.969 -8.04,-35.219 -10.08,-53.117 -6.43,-55.391 -10.01,-111.441 -30.4,-164.191 -11.62,-29.961 -24.55,-59.629 -39.68,-88.051 -10.23,-19.149 -24.91,-36.02 -38.51,-53.27 -23.09,-29.23 -52.46,-48.808 -90.46,-51.441 -51.07,-3.578 -93.16,19.59 -117.49,60.43 -5.7,9.57 -11.99,18.921 -16.08,29.011 -7.89,19.371 -15.78,38.95 -20.9,59.192 -4.45,17.457 -4.74,36.019 -7.45,54.058 -4.38,28.801 -10.45,57.508 -13.45,86.379 -2.48,22.789 -1.02,45.891 -2.48,68.832 -2.77,40.18 -7.09,80.379 -9.21,120.707 -0.94,17.832 2.34,35.961 2.71,53.934 0.8,33.898 0.37,67.949 1.75,101.848 1.1,28.07 5.48,56.062 5.85,83.968 0.36,31.782 0.36,63.492 -10.89,94.762 -5.7,15.65 -16.81,23.68 -25.5,35.08 -11.11,14.54 -24.34,15.49 -39.97,10.16 -2.71,-0.95 -5.99,0 -8.92,0.58 -18.56,3.58 -45.67,-7.16 -54.94,-22.87 -5.41,-9.35 -15.35,-23.962 -12.28,-28.641 8.4,-12.418 2.63,-22.95 2.05,-34.047 -1.32,-25.43 -3.81,-50.641 -4.97,-76 -2.34,-48.813 -4.39,-97.621 -6.51,-146.434 -1.02,-22.508 -2.12,-45.019 -3.06,-67.519 -0.81,-18.411 -2.05,-36.821 -1.83,-55.309 0.21,-17.461 1.61,-34.93 3.36,-52.391 1.46,-16.73 5.99,-33.468 5.7,-50.269 -0.44,-36.102 12.93,-71.031 5.48,-107.86 -2.34,-11.691 5.77,-25.429 9.42,-38.289 9.36,-32.882 13.16,-66.781 26.45,-99.23 13.01,-32.082 31.13,-60.281 49.84,-88.563 8.91,-13.726 21.41,-25.57 27.77,-40.25 7.3,-16.449 19.72,-22.808 34.63,-28.289"
             style="fill:url(#linearGradient266);fill-opacity:1;fill-rule:nonzero;stroke:none"
             id="path268" /></g></g><g
         id="g270"><g
           id="g272"
           clip-path="url(#clipPath276)"><path
             d="m 9689.37,223.609 c 1.75,9.942 1.82,20.032 2.55,29.961 1.47,23.461 3.73,46.918 4.54,70.442 0.73,29.226 0,58.75 0.43,87.976 0.74,41.141 2.04,82.203 2.63,123.34 0.22,19.004 -1.39,38.082 -0.8,57.07 0.88,19.954 4.32,39.973 4.75,59.782 0.66,29.441 -0.95,58.879 -0.51,88.34 0.44,37.179 2.19,74.378 2.69,111.652 0.16,16.219 -0.93,32.59 -2.25,48.808 -1.76,21.192 3,26.739 23.67,31.848 55.31,13.371 107.33,-0.648 158.86,-18.547 18.12,-6.293 36.31,-13.601 52.75,-23.531 31.2,-18.789 58.09,-42.898 83.82,-68.84 21.9,-22.351 35.4,-47.191 40.3,-77.672 1.3,-8.187 6.5,-15.707 8.7,-23.816 6.2,-23.024 12,-46.25 18,-69.352 -1.5,-0.289 -2.9,-0.582 -4.3,-0.871 1.2,-10.961 2.5,-21.918 4,-32.66 6.5,-47.937 8.3,-95.277 -5.9,-142.559 -10,-33.109 -14.8,-67.808 -25.9,-100.48 -5.6,-16.801 -19.2,-31.352 -30.7,-45.809 -15.8,-19.8 -32.2,-39.461 -50.24,-57.222 -7.82,-7.809 -20.61,-10.739 -31.2,-15.989 -13.23,-6.73 -25.8,-16.23 -39.9,-19.878 -28.42,-7.313 -57.65,-11.762 -86.58,-16.961 -17.91,-3.211 -35.96,-6.719 -54.08,-8.321 -20.74,-2.05 -41.57,-2.05 -62.54,-2.851 -11.54,-0.367 -14.77,5.191 -12.79,16.14 z m 77.38,-150.0074 c 37.77,2.8476 75.55,5.1875 112.6,11.7578 30.1,5.4922 59.33,16.8206 88.71,26.0196 17.96,5.621 36.64,10.23 53.44,18.562 27.7,13.59 52.5,32 73.6,54.868 23,24.929 46.5,49.48 69,74.972 6.5,7.16 9.5,17.399 14.8,25.801 24.4,38.43 47.5,77.309 52.4,124.207 2.8,27.781 8.6,55.32 11.9,83.012 4.9,41.14 9.3,82.418 1.3,123.711 -2.1,10.75 -4.7,21.488 -6.2,32.379 -2.6,19.648 -2.6,39.968 -7.7,58.89 -8.2,30.25 -19.4,59.848 -30,89.438 -4.1,11.761 -9.2,23.383 -15.8,33.761 -15.9,24.692 -25.7,53.192 -49.7,72.7 -17.2,13.961 -32.2,30.55 -48.4,45.672 -4.4,4.168 -10.4,6.937 -13.6,11.687 -13.9,19.949 -36.1,27.043 -55.9,37.633 -19.69,10.448 -39.93,20.378 -60.32,29.438 -16.67,7.31 -34.06,14.04 -51.44,19.3 -24.55,7.45 -49.55,13.44 -74.61,19.73 -8.11,2.12 -16.58,4.68 -24.77,4.68 -21.99,0 -43.77,-1.32 -65.46,-2.05 -3.01,-0.07 -6.29,0.14 -9,1.17 -22.58,7.74 -44.5,9.5 -67.59,0.14 -14.1,-5.55 -30.04,-10.45 -44.79,-9.64 -20.9,1.25 -36.97,-2.19 -48.74,-20.61 -2.56,-4.31 -8.04,-7.3 -12.64,-9.93 -30.62,-16.81 -39.53,-38.591 -31.56,-69.349 11.68,-45.59 16.43,-92.153 13.14,-139.492 -1.6,-22.719 -0.29,-45.661 -0.36,-68.469 -0.07,-24.481 0.51,-48.949 -0.58,-73.36 -1.1,-27.98 -4.97,-55.75 -5.34,-83.589 -0.29,-17.832 5.7,-35.731 5.34,-53.559 -0.74,-39.023 -4.68,-77.891 -5.63,-116.844 -0.65,-27.316 2.78,-54.726 2.12,-81.976 -1.17,-52.403 -3.8,-104.723 -6.06,-163.473 1.45,-9.93 2.99,-26.23 6.14,-42.23 4.52,-23.09 26,-33.098 40.84,-47.6371 22.07,-21.7735 53.26,-21.7735 81.98,-22.0625 36.32,-0.3008 72.63,2.1094 108.88,4.7422"
             style="fill:url(#linearGradient282);fill-opacity:1;fill-rule:nonzero;stroke:none"
             id="path284" /></g></g><g
         id="g286"><g
           id="g288"
           clip-path="url(#clipPath292)"><path
             d="m 3260.58,501.5 c 3.07,25.789 6.57,51.52 10.08,77.309 1.53,11.261 1.9,22.871 5.12,33.839 9.49,33.614 22.79,66.192 29.81,100.243 7.08,35.66 23.97,64.597 46.47,91.918 12.28,14.91 20.75,33.031 33.1,47.929 10.6,13.012 23.02,25.301 36.68,34.942 23.24,16.441 47.64,31.269 72.27,45.441 13.37,7.75 28.13,13.078 42.45,18.859 3.43,1.391 8.99,1.68 11.76,-0.14 25.95,-17.102 56.71,-14.328 85.06,-20.981 17.54,-4.16 36.24,-7.238 51.58,-15.847 22.15,-12.422 43.27,-28.282 56.56,-50.942 14.18,-24.031 28.94,-48.3 38.87,-74.16 10.24,-26.89 16.16,-55.832 21.49,-84.32 5.55,-29.738 8.48,-60.141 12.42,-90.461 -3.21,-31.859 -3.72,-64.02 -10.38,-94.988 -11.25,-52.903 -25.64,-105.52 -39.89,-157.84 -13.44,-48.36 -40.33,-88.563 -80.01,-119.18 -30.04,-23.23 -64.6,-37.769 -100.48,-49.75 -54.21,-18.133 -108.72,-12.941 -161.11,2.77 -43.33,13.16 -84.98,34.629 -108.81,77.308 -8.25,14.68 -12.71,31.281 -20.16,46.403 -23.24,47.046 -28.21,98.269 -34.93,149.07 -1.31,10.578 0.66,21.769 2.05,32.578 z m -99.67,216.359 c -11.77,-41.211 -24.7,-82.129 -34.78,-123.711 -5.56,-22.707 -8.41,-46.457 -9.14,-69.918 -0.8,-24.628 5.19,-49.539 3.58,-74.089 -3.21,-47.571 8.19,-90.832 29.52,-132.629 4.09,-7.973 3.8,-18.34 7.24,-26.903 4.6,-11.019 13.3,-20.668 16.29,-32.07 6.73,-26.301 22.51,-48.367 37.41,-69.41 18.12,-25.277 46.47,-42.527 63.35,-69.777 0.96,-1.473 3.22,-2.782 4.97,-2.93 16.74,-1.231 28.72,-10 42.68,-19.2111 21.85,-14.1796 49.9,-18.5703 75.48,-27.1093 8.04,-2.5625 16.22,-5.0508 24.4,-6.8711 18.93,-4.5313 37.86,-11.1914 57,-12.1992 21.85,-1.25 43.77,2.6992 65.62,4.3789 41.79,1.2382 82.13,7.6015 119.54,28.0586 21.77,11.9804 45.6,20.0192 67.81,31.1332 15.93,8.027 33.17,15.929 45.74,28.058 29.23,28.352 64.3,51.36 84.91,88.399 11.83,21.203 28.79,39.761 38.87,61.613 12.35,26.519 21.78,54.879 29.23,83.367 8.48,32.742 13.45,66.492 19.95,99.742 4.6,23.309 10.66,46.481 13.08,69.93 2.85,27.469 4.16,55.32 2.85,82.789 -1.83,35.871 -7.09,71.391 -10.3,107.191 -4.39,50.418 -33.03,92.368 -49.99,138.399 -10.44,28.5 -34.77,52.019 -53.41,77.308 -4.02,5.543 -11.69,8.332 -15.42,14.024 -18.7,28.5 -45.3,46.768 -74.53,62.628 -13.3,7.15 -31.57,8.62 -36.61,27.4 -0.58,2.04 -3.43,3.65 -5.55,4.81 -16.88,10.09 -32.37,19.3 -54.29,21.19 -32.08,2.93 -63.43,3.08 -94.99,0.23 -15.27,-1.39 -30.47,-7.01 -45.45,-6.36 -21.63,1.03 -40.48,-8.33 -59.55,-14.03 -25,-7.24 -48.09,-21.48 -71.1,-34.05 -18.05,-9.94 -36.98,-19.65 -51.88,-33.388 -38.88,-36.243 -79.94,-70.661 -109.46,-116.18 -25.28,-39.16 -52.61,-77.16 -63.06,-123.781 -2.56,-12.129 -6.65,-24.051 -10.01,-36.032"
             style="fill:url(#linearGradient298);fill-opacity:1;fill-rule:nonzero;stroke:none"
             id="path300" /></g></g><g
         id="g302"><g
           id="g304"
           clip-path="url(#clipPath308)"><path
             d="m 6028.04,186.051 c 29.37,-11.832 61.01,-16.281 89.88,-31.199 17.68,-9.133 40.69,-7.961 58.81,-16.43 24.12,-11.402 48.88,-8.922 73.44,-10.813 27.26,-2.129 54.51,-3.148 81.62,3.493 16.44,4.097 35.37,0.878 50.06,7.527 25.56,11.332 51.87,22.582 72.85,42.68 11.03,10.589 21.7,22.281 34.7,29.961 24.05,13.949 42.09,33.679 58.75,55.019 5.26,6.43 12.13,11.981 15.28,19.141 4.89,10.968 6.72,23.242 10.81,34.492 10.38,28.348 29.3,53.269 32.37,84.758 1.75,18.558 7.09,36.691 10.66,55.031 1.1,4.891 0.15,11.609 3,14.539 10.31,10.082 5.7,20.531 4.17,32 -0.81,5.922 4.46,16.879 9.49,18.559 11.76,4.242 25.06,4.461 33.7,5.703 23.3,-3.953 39.53,3.367 54.57,13.437 24.63,16.52 41.79,36.242 25.65,68.25 -0.14,0.449 0,1.02 -0.07,1.61 -2.42,27.632 -29.01,52.472 -56.71,52.832 -4.01,0.07 -8.83,-0.52 -11.98,1.39 -17.1,10.449 -34.71,3.578 -51.87,1.68 -30.18,-3.141 -60,-8.922 -90.02,-10.231 -35.88,-1.679 -72.05,1.75 -108.01,-3.441 -9.65,-1.457 -19.87,-0.5 -29.96,-1.457 -25.94,-2.773 -52.02,-5.992 -77.96,-8.98 -11.18,-1.391 -22.51,-2.122 -33.25,-5.043 -10.59,-2.93 -21.19,-7.387 -30.83,-12.571 -8.77,-4.679 -16.3,-11.687 -24.85,-16.808 -11.26,-6.578 -17.9,-21.7 -9.71,-31.27 14.31,-17.031 28.49,-35.808 46.91,-47.211 23.45,-14.469 51.73,-16 79.57,-13.301 29.3,2.922 58.89,5.043 88.42,6.293 4.31,0.219 12.42,-5.632 12.71,-8.992 1.02,-26.16 3.21,-52.898 -0.66,-78.48 -3.36,-22.278 -14.4,-43.41 -21.99,-65.028 -1.47,-4.171 -1.98,-8.839 -3.59,-12.941 -3.79,-10.07 -6.43,-21.629 -13.15,-29.648 -23.17,-28.071 -44.49,-59.571 -86.29,-62.114 -14.77,-14.769 -35.45,-9.066 -51.59,-9.508 -40.26,-1.39 -80.74,4.102 -119.04,19.29 -19.94,7.89 -40.33,14.902 -59.4,24.699 -17.54,8.91 -33.76,20.75 -50.2,32.082 -17.68,12.269 -28.93,29.73 -34.56,50.418 -3.94,13.812 -4.6,28.562 -8.7,42.301 -10.89,36.468 -10.01,73.949 -11.31,111.21 -0.45,15.129 0.42,30.481 2.48,45.532 2.98,24.41 7.52,48.66 11.17,73 4.9,31.199 7.67,62.828 14.47,93.519 8.77,38.59 20.39,76.731 48.01,106.981 17.61,19.437 34.92,39.457 54.8,56.269 18.48,15.418 39.38,28.199 60.65,39.598 13.67,7.23 29.67,9.652 44.5,14.101 1.9,0.579 4.01,-0.07 5.85,-0.07 8.61,-0.148 17.17,0.879 25.64,-0.59 9.79,-1.609 19.81,-4.461 29.09,-8.468 7.74,-3.364 13.66,-11.481 21.48,-13.301 23.82,-5.563 35.88,-19.879 40.04,-43.629 1.53,-9.422 5.7,-20.024 11.98,-26.594 14.62,-14.687 30.91,-27.84 47.2,-40.629 15.06,-11.758 41.87,-8.109 56.27,4.102 13.01,11.019 22.65,23.16 25.8,40.109 0.87,5.11 5.25,9.789 5.25,14.762 0.15,7.308 -1.68,14.898 -3.36,22.219 -2.56,11.019 -4.02,22.937 -8.91,33.031 -12.42,26 -25.43,52.228 -53.34,66.188 -2.12,1.17 -3.15,4.1 -5.05,5.55 -18.26,13.16 -35.36,28.35 -55.09,38.73 -35.07,18.12 -73.37,28.35 -112.31,34.13 -16.29,2.41 -33.69,6.35 -49.24,2.92 -27.27,-5.92 -53.21,-16.73 -79.58,-26.16 -7.75,-2.85 -14.17,-8.84 -21.93,-12.35 -15.56,-7.37 -33.24,-11.77 -46.98,-21.63 -30.69,-21.7 -59.84,-45.671 -88.99,-69.421 -9.21,-7.449 -17.83,-16.219 -24.34,-25.93 -12.21,-18.199 -23.16,-37.199 -33.47,-56.57 -11.54,-21.551 -28.56,-41.27 -25.72,-68.449 0.52,-4.239 -0.87,-8.848 -2.04,-13.16 -6.42,-24.989 -14.39,-49.68 -19.59,-74.969 -4.45,-22.512 -4.31,-46.031 -9.49,-68.321 -7.53,-32.371 -14.9,-64.16 -11.7,-97.769 4.53,-48.082 8.11,-96.231 12.35,-144.391 0.88,-8.832 2.56,-17.75 5.35,-26.23 5.76,-18.852 11.67,-37.699 18.7,-56.121 6.65,-16.949 7.96,-36.391 23.67,-49.25 16.8,-13.739 33.32,-27.91 49.75,-41.938 10.32,-8.84 19.89,-18.562 30.47,-26.82 14.41,-11.031 28.07,-24.402 44.44,-30.91"
             style="fill:url(#linearGradient314);fill-opacity:1;fill-rule:nonzero;stroke:none"
             id="path316" /></g></g><g
         id="g318"><g
           id="g320"
           clip-path="url(#clipPath324)"><path
             d="m 10558.6,28.7383 c 32.1,-5.6289 63.1,-16.8789 94.9,-24.33986 38.5,-8.91016 76.3,-3.0586 114,6.72266 26.5,6.8789 51.6,14.9102 73.4,32.1602 29.4,23.7382 59.2,47.0468 89,70.5077 1.1,0.949 1.7,2.41 2.4,3.731 19.4,38.289 39.8,76.14 57.8,115.011 7.5,16.297 11.4,34.641 14.7,52.457 3,16.371 3.3,33.321 4.5,49.981 0.9,11.109 2.4,22.293 2,33.32 -0.8,18.199 -2.2,36.391 -4.6,54.371 -4,28.57 -7.6,57.129 -14,85.199 -5.4,23.532 -13.7,46.621 -22.6,69.121 -7.3,18.852 -15.4,38.071 -26.9,54.508 -17.1,24.481 -36.7,47.352 -56.7,69.563 -12.9,14.328 -26.8,28.789 -43,38.59 -23.5,14.019 -49.5,23.23 -74.2,35.289 -21.1,10.601 -40.7,24.851 -62.7,32.949 -29.5,10.891 -54.5,28.07 -78.9,46.91 -8,6.289 -16,12.43 -23.4,19.301 -14.8,13.59 -26.3,28.351 -22.4,50.851 3.4,20.098 10,37.637 32,42.528 19.7,4.531 40,9.211 60.2,9.363 33.1,0.207 56.1,-14.551 68.7,-48.383 10.5,-28.5 29.8,-54.937 65.6,-51.73 16.6,1.453 32.3,12.863 48.2,20.16 18.3,8.332 25.2,23.09 25.6,43.269 -2,7.961 -4.3,15.782 -5.8,23.813 -2.6,12.719 -4.2,25.5 -7,38.069 -1.3,6 -3.2,13.08 -7.3,17.1 -15.1,14.83 -30.7,29 -46.8,42.74 -37.5,31.79 -83,44.8 -130.2,49.4 -41.1,3.94 -82.7,1.76 -122.8,-11.4 -9.3,-3.06 -17.9,-9.35 -27.4,-10.59 -21.1,-2.92 -36.8,-13.67 -49.1,-30.03 -5.5,-7.17 -9.5,-15.93 -16.4,-21.27 -22.4,-17.76 -30.3,-43.48 -41.1,-68.031 -12.3,-28.558 -2.5,-56.988 3.3,-83.301 7,-32.437 28.4,-60.5 51.3,-85.339 17.5,-18.86 36.9,-36.239 56.4,-53.34 10.8,-9.5 22.6,-18.188 35.2,-24.989 23.7,-13.011 48.8,-23.671 72.7,-36.242 22.4,-11.976 44.3,-25.718 66.8,-37.847 14.3,-7.61 29.9,-12.719 44.2,-20.692 14.1,-8.097 28.8,-16.66 40.7,-27.609 37.1,-34.27 45.4,-82.36 57.3,-128.102 6.9,-26.879 9.8,-54.937 13.9,-82.566 0.8,-5.113 -1,-10.813 -2,-16.07 -0.8,-5.852 -2.4,-11.622 -3.7,-17.403 -5,-25.277 -7.7,-51.219 -15.4,-75.539 -7.3,-22.441 -19.2,-43.41 -30.5,-64.308 -6.2,-11.692 -13.9,-23.672 -23.7,-32.231 -16.1,-13.949 -34.8,-24.762 -51.5,-38.062 -16.8,-13.227 -35.3,-19 -56,-16.809 -16.9,1.602 -33.5,5.84 -50.2,6.941 -37.3,2.418 -68.9,17.61 -98.1,39.829 -7.9,5.992 -19.5,9.281 -24.1,16.941 -14.9,24.117 -28.6,49.41 -31.8,78.199 -2.6,23.668 -3.9,47.711 -3.7,71.61 0.2,17.089 1.2,35.07 6.6,51.14 9.1,26.961 20.2,53.488 33.4,78.922 6.5,12.93 3.8,25.43 5.9,37.93 4.7,25.929 -10.2,46.386 -36.7,45.066 -11.3,-0.437 -23.2,-2.918 -33.4,-7.449 -10.4,-4.68 -21,-11.391 -28.1,-20.02 -13,-16.507 -23.9,-34.781 -35.2,-52.597 -9.5,-15.211 -18.8,-30.551 -27.3,-46.262 -4.7,-8.988 -9.1,-18.93 -10.7,-28.859 -2.2,-13.09 -0.6,-26.75 -2.4,-39.903 -4.9,-37.269 -9.4,-74.386 4.2,-110.918 3.4,-8.691 7.4,-17.25 10.3,-26.16 10.7,-33.18 21.3,-66.5 50,-89.73 0.6,-0.59 1.4,-1.61 1.7,-2.489 8.8,-27.402 34.4,-41.8004 54.3,-56.2613 26,-18.5703 52.1,-40.6289 86.6,-46.6914"
             style="fill:url(#linearGradient330);fill-opacity:1;fill-rule:nonzero;stroke:none"
             id="path332" /></g></g><g
         id="g334"><g
           id="g336"
           clip-path="url(#clipPath340)"><path
             d="m 1959.41,815.629 c 13.23,-12.707 25.07,-26.891 38.8,-39.02 18.42,-16.507 38.07,-31.64 57.15,-47.339 10.01,-8.34 19.36,-17.411 30.17,-24.559 22.44,-14.973 45.52,-28.652 68.03,-43.191 10.09,-6.418 19.58,-13.739 29.23,-20.961 16.66,-12.571 32.74,-26.02 49.69,-37.789 38.87,-26.961 78.77,-52.532 117.57,-79.711 27.33,-19.289 44.64,-51.008 77.52,-64.231 3.66,-1.457 6.58,-8.988 6.87,-13.957 1.68,-20.312 3.44,-40.922 2.93,-61.23 -1.25,-42.532 -3.66,-84.911 -5.85,-127.442 -0.88,-16.949 -2.92,-34.039 -3.73,-50.929 -1.24,-27.692 -14.83,-55.02 -2.41,-83.071 1.17,-2.64 1.76,-6.437 0.73,-8.918 -7.6,-18.8591 0.59,-35.1521 11.11,-48.5193 12.5,-16 27.91,-30.0312 43.55,-43.1133 5.11,-4.3789 14.98,-5.2578 22.43,-4.3789 12.2,1.4493 24.77,4.5313 36.46,8.9102 33.91,12.8594 48.96,29.8203 41.8,61.6719 -3.21,14.2504 -4.53,29.5194 -4.09,44.1284 0.8,27.399 4.53,54.661 5.26,81.989 1.02,35.59 0.22,71.312 0.29,106.98 0,38.86 6.14,77.672 -2.33,116.621 -3,13.95 -0.59,28.489 14.17,38.282 25.65,17.25 50.71,35.519 75.84,53.628 8.78,6.442 17.1,13.301 25.36,20.469 18.56,15.699 36.25,32.742 55.61,47.34 14.83,11.121 32.59,17.981 47.42,28.789 16.66,12.281 31.86,26.672 47.43,40.492 25.42,22.578 51.22,45.008 76.13,68.239 45.75,42.679 90.9,86.222 136.94,128.613 14.68,13.437 31.56,24.398 47.2,36.816 20.6,16.524 41.43,32.742 61.09,50.364 14.97,13.507 28.64,28.707 41.65,44.187 3.5,4.242 5.33,13.451 3.14,18.421 -7.16,16.22 -15.42,32.3 -25.65,46.77 -4.97,7.01 -14.68,11.32 -22.94,15.49 -26.16,13.01 -50.86,1.75 -75.48,-5.99 -11.33,-3.44 -22.44,-7.53 -27.85,-20.47 -2.34,-5.41 -8.76,-9.27 -13.81,-13.43 -19.21,-15.86 -38.79,-31.22 -57.5,-47.361 -27.92,-24.11 -55.46,-48.508 -82.86,-73.071 -37.12,-33.386 -74.1,-67.007 -111,-100.539 -24.4,-22.07 -48.08,-45.007 -73.29,-66.058 -25.42,-21.121 -52.61,-39.903 -78.48,-60.571 -28.12,-22.582 -55.38,-46.41 -83.22,-69.199 -12.79,-10.371 -25.5,-21.922 -40.26,-28.64 -25.8,-11.621 -44.87,6.418 -63.58,20.16 -19.58,14.539 -37.19,32 -57.13,46.039 -38.15,26.672 -77.46,51.582 -115.89,77.82 -29.89,20.531 -58.83,42.16 -88.49,62.91 -9.28,6.571 -20.24,10.809 -29.23,17.828 -18.85,14.614 -36.9,30.543 -55.24,45.813 -19.87,16.738 -40.41,32.668 -59.7,50.199 -19.87,18.27 -38.07,38.141 -57.06,57.149 -21.05,20.75 -41.51,41.791 -62.92,62.111 -26.02,24.69 -49.73,54.21 -91.81,50.42 -3.84,-0.44 -8.33,0.14 -11.66,-1.32 -14.06,-6.14 -28.5,-12.13 -41.76,-19.81 -4.27,-2.56 -7.38,-10.3 -7.92,-15.99 -2.09,-22.87 7.63,-41.8 22.32,-58.458 23.42,-26.75 47.38,-53.203 71.31,-79.571 20.06,-22.152 40.23,-44.222 60.83,-65.992 8.33,-8.617 18.42,-15.5 27.11,-23.82"
             style="fill:url(#linearGradient346);fill-opacity:1;fill-rule:nonzero;stroke:none"
             id="path348" /></g></g><g
         id="g350"><g
           id="g352"
           clip-path="url(#clipPath356)"><path
             d="m 8414.29,60.3789 c 0.95,3.8008 5.04,7.4492 8.55,9.9297 21.33,15.9297 28.58,36.4024 22.21,62.1134 -1.75,7.16 -1.6,14.976 -1.31,22.43 1.17,52.617 2.99,105.296 4.16,157.769 1.17,54.508 1.68,108.867 3,163.231 0.29,13.589 2.78,27.039 2.92,40.488 0.37,33.68 -1.24,67.219 0.08,100.762 1.46,35.289 5.77,70.507 8.03,105.726 1.91,28.863 1.68,57.871 3.95,86.66 2.41,30.473 6.73,60.793 9.93,91.192 0.29,2.492 -0.22,4.968 -0.59,7.449 -2.69,14.621 -4.01,28.871 10.61,38.23 -4.17,7.45 -7.68,12.782 -10.45,18.34 -4.9,10.223 -8.77,20.903 -14.18,30.531 -4.61,8.33 -11.76,15.06 -16.58,23.31 -10.68,18.05 -30.84,24.34 -46.48,21.78 -22.87,-3.65 -46.84,-7.09 -67.51,-24.55 -26.97,-22.95 -28.5,-50.782 -27.77,-80.739 0.29,-14.472 3.28,-28.722 3.36,-43.121 0,-22.058 -1.53,-43.98 -2.34,-65.898 -1.02,-33.032 -1.46,-66.063 -2.78,-98.942 -2.05,-44.058 -4.82,-87.98 -7.16,-132.039 -2.04,-44.941 -4.23,-89.941 -6.14,-134.961 -0.72,-13.89 -1.6,-27.988 -0.72,-41.949 1.75,-27.973 7.01,-55.961 6.57,-83.801 -1.09,-63.648 -2.33,-127.66 -8.7,-191.011 -2.56,-26.668 7.76,-46.6176 20.31,-64.1606 20.03,-28.1171 52.77,-35.7187 86.38,-34.3398 9.05,0.3711 19.66,2.9922 22.65,15.5703"
             style="fill:url(#linearGradient362);fill-opacity:1;fill-rule:nonzero;stroke:none"
             id="path364" /></g></g><g
         id="g366"><g
           id="g368"
           clip-path="url(#clipPath372)"><path
             d="m 8306.14,1207.87 c 8.93,-8.11 13.52,-15.49 11.41,-24.19 5.77,-3.07 10.08,-5.04 13.95,-7.23 14.25,-7.67 27.55,-19.29 42.6,-22.36 19.81,-3.8 39.89,2.05 58.68,12.13 36.18,19.51 44.2,45.23 43.19,82.42 -0.45,17.54 -13.38,24.99 -23.83,33.55 -14.61,11.9 -29.81,24.69 -46.98,31.2 -23.9,9.2 -74.24,-14.77 -88.05,-37.85 -4.02,-6.73 -7.68,-14.33 -13.74,-19.3 -7.16,-6.28 -16.58,-9.93 -9.43,-22.43 4.6,-8.33 5.63,-20.02 12.2,-25.94"
             style="fill:url(#linearGradient378);fill-opacity:1;fill-rule:nonzero;stroke:none"
             id="path380" /></g></g></g></g></svg>
